%TF.GenerationSoftware,KiCad,Pcbnew,10.0.4*%
%TF.CreationDate,2026-09-05T17:46:33+08:00*%
%TF.ProjectId,stm32h743_core,73746d33-3268-4373-9433-5f636f72652e,rev?*%
%TF.SameCoordinates,Original*%
%TF.FileFunction,Copper,L1,Top*%
%TF.FilePolarity,Positive*%
%FSLAX46Y46*%
G04 Gerber Fmt 4.6, Leading zero omitted, Abs format (unit mm)*
G04 Created by KiCad (PCBNEW 10.0.4) date 2026-09-05 17:46:33*
%MOMM*%
%LPD*%
G01*
G04 APERTURE LIST*
G04 Aperture macros list*
%AMRoundRect*
0 Rectangle with rounded corners*
0 $1 Rounding radius*
0 $2 $3 $4 $5 $6 $7 $8 $9 X,Y pos of 4 corners*
0 Add a 4 corners polygon primitive as box body*
4,1,4,$2,$3,$4,$5,$6,$7,$8,$9,$2,$3,0*
0 Add four circle primitives for the rounded corners*
1,1,$1+$1,$2,$3*
1,1,$1+$1,$4,$5*
1,1,$1+$1,$6,$7*
1,1,$1+$1,$8,$9*
0 Add four rect primitives between the rounded corners*
20,1,$1+$1,$2,$3,$4,$5,0*
20,1,$1+$1,$4,$5,$6,$7,0*
20,1,$1+$1,$6,$7,$8,$9,0*
20,1,$1+$1,$8,$9,$2,$3,0*%
G04 Aperture macros list end*
%TA.AperFunction,SMDPad,CuDef*%
%ADD10RoundRect,0.140000X-0.170000X0.140000X-0.170000X-0.140000X0.170000X-0.140000X0.170000X0.140000X0*%
%TD*%
%TA.AperFunction,ComponentPad*%
%ADD11C,2.000000*%
%TD*%
%TA.AperFunction,SMDPad,CuDef*%
%ADD12RoundRect,0.140000X-0.140000X-0.170000X0.140000X-0.170000X0.140000X0.170000X-0.140000X0.170000X0*%
%TD*%
%TA.AperFunction,SMDPad,CuDef*%
%ADD13RoundRect,0.135000X-0.185000X0.135000X-0.185000X-0.135000X0.185000X-0.135000X0.185000X0.135000X0*%
%TD*%
%TA.AperFunction,SMDPad,CuDef*%
%ADD14RoundRect,0.250000X-0.325000X-0.650000X0.325000X-0.650000X0.325000X0.650000X-0.325000X0.650000X0*%
%TD*%
%TA.AperFunction,SMDPad,CuDef*%
%ADD15RoundRect,0.218750X-0.218750X-0.256250X0.218750X-0.256250X0.218750X0.256250X-0.218750X0.256250X0*%
%TD*%
%TA.AperFunction,SMDPad,CuDef*%
%ADD16RoundRect,0.150000X-0.150000X-0.575000X0.150000X-0.575000X0.150000X0.575000X-0.150000X0.575000X0*%
%TD*%
%TA.AperFunction,SMDPad,CuDef*%
%ADD17RoundRect,0.075000X-0.075000X-0.650000X0.075000X-0.650000X0.075000X0.650000X-0.075000X0.650000X0*%
%TD*%
%TA.AperFunction,ComponentPad*%
%ADD18O,1.000000X2.100000*%
%TD*%
%TA.AperFunction,ComponentPad*%
%ADD19O,1.000000X1.600000*%
%TD*%
%TA.AperFunction,ComponentPad*%
%ADD20R,1.700000X1.700000*%
%TD*%
%TA.AperFunction,ComponentPad*%
%ADD21C,1.700000*%
%TD*%
%TA.AperFunction,SMDPad,CuDef*%
%ADD22RoundRect,0.250000X-0.375000X-0.625000X0.375000X-0.625000X0.375000X0.625000X-0.375000X0.625000X0*%
%TD*%
%TA.AperFunction,SMDPad,CuDef*%
%ADD23RoundRect,0.150000X-0.825000X-0.150000X0.825000X-0.150000X0.825000X0.150000X-0.825000X0.150000X0*%
%TD*%
%TA.AperFunction,HeatsinkPad*%
%ADD24R,2.290000X3.000000*%
%TD*%
%TA.AperFunction,ComponentPad*%
%ADD25C,6.400000*%
%TD*%
%TA.AperFunction,SMDPad,CuDef*%
%ADD26RoundRect,0.140000X-0.199577X0.093108X-0.129650X-0.178019X0.199577X-0.093108X0.129650X0.178019X0*%
%TD*%
%TA.AperFunction,SMDPad,CuDef*%
%ADD27RoundRect,0.250000X-0.650000X0.325000X-0.650000X-0.325000X0.650000X-0.325000X0.650000X0.325000X0*%
%TD*%
%TA.AperFunction,SMDPad,CuDef*%
%ADD28RoundRect,0.140000X0.113921X-0.188473X0.206820X0.075667X-0.113921X0.188473X-0.206820X-0.075667X0*%
%TD*%
%TA.AperFunction,SMDPad,CuDef*%
%ADD29RoundRect,0.225000X-0.225000X-0.250000X0.225000X-0.250000X0.225000X0.250000X-0.225000X0.250000X0*%
%TD*%
%TA.AperFunction,SMDPad,CuDef*%
%ADD30RoundRect,0.218750X-0.256250X0.218750X-0.256250X-0.218750X0.256250X-0.218750X0.256250X0.218750X0*%
%TD*%
%TA.AperFunction,SMDPad,CuDef*%
%ADD31RoundRect,0.225000X-0.271771X-0.198155X0.168532X-0.291070X0.271771X0.198155X-0.168532X0.291070X0*%
%TD*%
%TA.AperFunction,SMDPad,CuDef*%
%ADD32RoundRect,0.250000X-0.475000X0.250000X-0.475000X-0.250000X0.475000X-0.250000X0.475000X0.250000X0*%
%TD*%
%TA.AperFunction,SMDPad,CuDef*%
%ADD33C,1.000000*%
%TD*%
%TA.AperFunction,SMDPad,CuDef*%
%ADD34RoundRect,0.140000X0.119329X0.185096X-0.158779X0.152608X-0.119329X-0.185096X0.158779X-0.152608X0*%
%TD*%
%TA.AperFunction,SMDPad,CuDef*%
%ADD35RoundRect,0.140000X0.185144X-0.119255X0.152544X0.158841X-0.185144X0.119255X-0.152544X-0.158841X0*%
%TD*%
%TA.AperFunction,SMDPad,CuDef*%
%ADD36RoundRect,0.140000X-0.158830X0.152555X-0.180180X-0.126630X0.158830X-0.152555X0.180180X0.126630X0*%
%TD*%
%TA.AperFunction,SMDPad,CuDef*%
%ADD37RoundRect,0.250000X-0.650000X1.000000X-0.650000X-1.000000X0.650000X-1.000000X0.650000X1.000000X0*%
%TD*%
%TA.AperFunction,SMDPad,CuDef*%
%ADD38R,1.000000X1.800000*%
%TD*%
%TA.AperFunction,SMDPad,CuDef*%
%ADD39RoundRect,0.140000X0.042604X-0.216067X0.220227X0.000382X-0.042604X0.216067X-0.220227X-0.000382X0*%
%TD*%
%TA.AperFunction,SMDPad,CuDef*%
%ADD40RoundRect,0.140000X-0.216067X-0.042604X0.000382X-0.220227X0.216067X0.042604X-0.000382X0.220227X0*%
%TD*%
%TA.AperFunction,SMDPad,CuDef*%
%ADD41RoundRect,0.225000X-0.328989X-0.069939X0.035018X-0.334513X0.328989X0.069939X-0.035018X0.334513X0*%
%TD*%
%TA.AperFunction,SMDPad,CuDef*%
%ADD42RoundRect,0.150000X0.150000X-0.512500X0.150000X0.512500X-0.150000X0.512500X-0.150000X-0.512500X0*%
%TD*%
%TA.AperFunction,SMDPad,CuDef*%
%ADD43RoundRect,0.225000X-0.250000X0.225000X-0.250000X-0.225000X0.250000X-0.225000X0.250000X0.225000X0*%
%TD*%
%TA.AperFunction,SMDPad,CuDef*%
%ADD44RoundRect,0.140000X0.219825X-0.013297X0.055202X0.213196X-0.219825X0.013297X-0.055202X-0.213196X0*%
%TD*%
%TA.AperFunction,SMDPad,CuDef*%
%ADD45RoundRect,0.135000X-0.135000X-0.185000X0.135000X-0.185000X0.135000X0.185000X-0.135000X0.185000X0*%
%TD*%
%TA.AperFunction,SMDPad,CuDef*%
%ADD46RoundRect,0.140000X0.207529X0.073700X-0.032538X0.217810X-0.207529X-0.073700X0.032538X-0.217810X0*%
%TD*%
%TA.AperFunction,SMDPad,CuDef*%
%ADD47RoundRect,0.225000X0.060033X-0.330940X0.335413X0.024962X-0.060033X0.330940X-0.335413X-0.024962X0*%
%TD*%
%TA.AperFunction,SMDPad,CuDef*%
%ADD48RoundRect,0.250000X-1.000000X-0.650000X1.000000X-0.650000X1.000000X0.650000X-1.000000X0.650000X0*%
%TD*%
%TA.AperFunction,SMDPad,CuDef*%
%ADD49RoundRect,0.140000X-0.137430X0.172084X-0.195244X-0.101882X0.137430X-0.172084X0.195244X0.101882X0*%
%TD*%
%TA.AperFunction,SMDPad,CuDef*%
%ADD50RoundRect,0.075000X-0.662500X-0.075000X0.662500X-0.075000X0.662500X0.075000X-0.662500X0.075000X0*%
%TD*%
%TA.AperFunction,SMDPad,CuDef*%
%ADD51RoundRect,0.075000X-0.075000X-0.662500X0.075000X-0.662500X0.075000X0.662500X-0.075000X0.662500X0*%
%TD*%
%TA.AperFunction,SMDPad,CuDef*%
%ADD52R,2.950000X3.500000*%
%TD*%
%TA.AperFunction,SMDPad,CuDef*%
%ADD53RoundRect,0.140000X-0.084350X-0.203433X0.183484X-0.121794X0.084350X0.203433X-0.183484X0.121794X0*%
%TD*%
%TA.AperFunction,ViaPad*%
%ADD54C,0.500000*%
%TD*%
%TA.AperFunction,ViaPad*%
%ADD55C,0.600000*%
%TD*%
%TA.AperFunction,Conductor*%
%ADD56C,0.300000*%
%TD*%
%TA.AperFunction,Conductor*%
%ADD57C,0.225000*%
%TD*%
%TA.AperFunction,Conductor*%
%ADD58C,0.150000*%
%TD*%
%TA.AperFunction,Conductor*%
%ADD59C,0.200000*%
%TD*%
G04 APERTURE END LIST*
D10*
%TO.P,C47,1*%
%TO.N,+3V3*%
X40000000Y-16520000D03*
%TO.P,C47,2*%
%TO.N,GND*%
X40000000Y-17480000D03*
%TD*%
D11*
%TO.P,SW2,1*%
%TO.N,PC13*%
X68750000Y-16750000D03*
X75250000Y-16750000D03*
%TO.P,SW2,2*%
%TO.N,GND*%
X68750000Y-21250000D03*
X75250000Y-21250000D03*
%TD*%
D12*
%TO.P,C26,1*%
%TO.N,COMP_M*%
X14520000Y-29000000D03*
%TO.P,C26,2*%
%TO.N,GND*%
X15480000Y-29000000D03*
%TD*%
D13*
%TO.P,R24,1*%
%TO.N,+3V3*%
X66000000Y-37490000D03*
%TO.P,R24,2*%
%TO.N,LED_PWR*%
X66000000Y-38510000D03*
%TD*%
D14*
%TO.P,C25,1*%
%TO.N,+3V3*%
X34025000Y-15200000D03*
%TO.P,C25,2*%
%TO.N,GND*%
X36975000Y-15200000D03*
%TD*%
D15*
%TO.P,FB1,1*%
%TO.N,+3V3*%
X26712500Y-36000000D03*
%TO.P,FB1,2*%
%TO.N,VDDA*%
X28287500Y-36000000D03*
%TD*%
D16*
%TO.P,J3,A1*%
%TO.N,GND*%
X4250000Y-21452500D03*
%TO.P,J3,A4*%
%TO.N,VBUS*%
X5050000Y-21452500D03*
D17*
%TO.P,J3,A5*%
%TO.N,CC1*%
X6250000Y-21452500D03*
%TO.P,J3,A6*%
%TO.N,USB_DP_P*%
X7250000Y-21452500D03*
%TO.P,J3,A7*%
%TO.N,USB_DM_P*%
X7750000Y-21452500D03*
%TO.P,J3,A8*%
%TO.N,N/C*%
X8750000Y-21452500D03*
D16*
%TO.P,J3,A9*%
%TO.N,VBUS*%
X9950000Y-21452500D03*
%TO.P,J3,A12*%
%TO.N,GND*%
X10750000Y-21452500D03*
%TO.P,J3,B1*%
X10750000Y-21452500D03*
%TO.P,J3,B4*%
%TO.N,VBUS*%
X9950000Y-21452500D03*
D17*
%TO.P,J3,B5*%
%TO.N,CC2*%
X9250000Y-21452500D03*
%TO.P,J3,B6*%
%TO.N,USB_DP_P*%
X8250000Y-21452500D03*
%TO.P,J3,B7*%
%TO.N,USB_DM_P*%
X6750000Y-21452500D03*
%TO.P,J3,B8*%
%TO.N,N/C*%
X5750000Y-21452500D03*
D16*
%TO.P,J3,B9*%
%TO.N,VBUS*%
X5050000Y-21452500D03*
%TO.P,J3,B12*%
%TO.N,GND*%
X4250000Y-21452500D03*
D18*
%TO.P,J3,SH*%
X3180000Y-22367500D03*
D19*
X3180000Y-26547500D03*
D18*
X11820000Y-22367500D03*
D19*
X11820000Y-26547500D03*
%TD*%
D20*
%TO.P,J4,1*%
%TO.N,+3V3*%
X3200000Y-6150000D03*
D21*
%TO.P,J4,2*%
%TO.N,PA13*%
X3200000Y-8690000D03*
%TO.P,J4,3*%
%TO.N,PA14*%
X3200000Y-11230000D03*
%TO.P,J4,4*%
%TO.N,PB3*%
X3200000Y-13770000D03*
%TO.P,J4,5*%
%TO.N,NRST*%
X3200000Y-16310000D03*
%TO.P,J4,6*%
%TO.N,GND*%
X3200000Y-18850000D03*
%TD*%
D22*
%TO.P,F1,1*%
%TO.N,VBUS*%
X27100000Y-22500000D03*
%TO.P,F1,2*%
%TO.N,VBUS_F*%
X29900000Y-22500000D03*
%TD*%
D23*
%TO.P,U2,1*%
%TO.N,BOOT*%
X15525000Y-13095000D03*
%TO.P,U2,2*%
%TO.N,+5V*%
X15525000Y-14365000D03*
%TO.P,U2,3*%
%TO.N,N/C*%
X15525000Y-15635000D03*
%TO.P,U2,4*%
X15525000Y-16905000D03*
%TO.P,U2,5*%
%TO.N,FB*%
X20475000Y-16905000D03*
%TO.P,U2,6*%
%TO.N,COMP*%
X20475000Y-15635000D03*
%TO.P,U2,7*%
%TO.N,GND*%
X20475000Y-14365000D03*
%TO.P,U2,8*%
%TO.N,PH*%
X20475000Y-13095000D03*
D24*
%TO.P,U2,9*%
%TO.N,GND*%
X18000000Y-15000000D03*
%TD*%
D25*
%TO.P,H4,1*%
%TO.N,GND*%
X55000000Y-55000000D03*
%TD*%
%TO.P,H1,1*%
%TO.N,GND*%
X6000000Y-33000000D03*
%TD*%
D10*
%TO.P,C51,1*%
%TO.N,OSC_OUT*%
X37000000Y-49020000D03*
%TO.P,C51,2*%
%TO.N,GND*%
X37000000Y-49980000D03*
%TD*%
D13*
%TO.P,R11,1*%
%TO.N,CC2*%
X22500000Y-29990000D03*
%TO.P,R11,2*%
%TO.N,GND*%
X22500000Y-31010000D03*
%TD*%
D26*
%TO.P,C68,1*%
%TO.N,+3V3*%
X46253925Y-17015310D03*
%TO.P,C68,2*%
%TO.N,GND*%
X46493675Y-17944890D03*
%TD*%
D13*
%TO.P,R22,1*%
%TO.N,PDR_ON*%
X28500000Y-27990000D03*
%TO.P,R22,2*%
%TO.N,+3V3*%
X28500000Y-29010000D03*
%TD*%
D12*
%TO.P,C23,1*%
%TO.N,BOOT*%
X17520000Y-10800000D03*
%TO.P,C23,2*%
%TO.N,PH*%
X18480000Y-10800000D03*
%TD*%
D13*
%TO.P,R13,1*%
%TO.N,VBUS_SENSE*%
X15000000Y-33990000D03*
%TO.P,R13,2*%
%TO.N,GND*%
X15000000Y-35010000D03*
%TD*%
%TO.P,R15,1*%
%TO.N,+3V3*%
X22000000Y-18990000D03*
%TO.P,R15,2*%
%TO.N,FB*%
X22000000Y-20010000D03*
%TD*%
D10*
%TO.P,C54,1*%
%TO.N,NRST*%
X20500000Y-33020000D03*
%TO.P,C54,2*%
%TO.N,GND*%
X20500000Y-33980000D03*
%TD*%
D27*
%TO.P,C24,1*%
%TO.N,+3V3*%
X35500000Y-8725000D03*
%TO.P,C24,2*%
%TO.N,GND*%
X35500000Y-11675000D03*
%TD*%
D28*
%TO.P,C64,1*%
%TO.N,+3V3*%
X49707144Y-53897910D03*
%TO.P,C64,2*%
%TO.N,GND*%
X50025656Y-52992290D03*
%TD*%
D10*
%TO.P,C52,1*%
%TO.N,OSC32_IN*%
X45500000Y-49020000D03*
%TO.P,C52,2*%
%TO.N,GND*%
X45500000Y-49980000D03*
%TD*%
D29*
%TO.P,C71,1*%
%TO.N,+3V3*%
X23225000Y-25000000D03*
%TO.P,C71,2*%
%TO.N,GND*%
X24775000Y-25000000D03*
%TD*%
D30*
%TO.P,D9,1*%
%TO.N,GND*%
X70000000Y-41712500D03*
%TO.P,D9,2*%
%TO.N,LED_USER*%
X70000000Y-43287500D03*
%TD*%
D31*
%TO.P,C46,1*%
%TO.N,+3V3*%
X56807199Y-29160880D03*
%TO.P,C46,2*%
%TO.N,GND*%
X58323801Y-29480920D03*
%TD*%
D32*
%TO.P,C21,1*%
%TO.N,+5V*%
X15000000Y-19850000D03*
%TO.P,C21,2*%
%TO.N,GND*%
X15000000Y-21750000D03*
%TD*%
D25*
%TO.P,H2,1*%
%TO.N,GND*%
X79000000Y-33000000D03*
%TD*%
D20*
%TO.P,J2,1*%
%TO.N,PD6*%
X8210000Y-63070000D03*
D21*
%TO.P,J2,2*%
%TO.N,PD7*%
X8210000Y-60530000D03*
%TO.P,J2,3*%
%TO.N,PD8*%
X10750000Y-63070000D03*
%TO.P,J2,4*%
%TO.N,PD9*%
X10750000Y-60530000D03*
%TO.P,J2,5*%
%TO.N,PE0*%
X13290000Y-63070000D03*
%TO.P,J2,6*%
%TO.N,PE1*%
X13290000Y-60530000D03*
%TO.P,J2,7*%
%TO.N,PE10*%
X15830000Y-63070000D03*
%TO.P,J2,8*%
%TO.N,PE11*%
X15830000Y-60530000D03*
%TO.P,J2,9*%
%TO.N,PE12*%
X18370000Y-63070000D03*
%TO.P,J2,10*%
%TO.N,PE13*%
X18370000Y-60530000D03*
%TO.P,J2,11*%
%TO.N,PE14*%
X20910000Y-63070000D03*
%TO.P,J2,12*%
%TO.N,PE15*%
X20910000Y-60530000D03*
%TO.P,J2,13*%
%TO.N,PE2*%
X23450000Y-63070000D03*
%TO.P,J2,14*%
%TO.N,PE3*%
X23450000Y-60530000D03*
%TO.P,J2,15*%
%TO.N,PE4*%
X25990000Y-63070000D03*
%TO.P,J2,16*%
%TO.N,PE5*%
X25990000Y-60530000D03*
%TO.P,J2,17*%
%TO.N,PE6*%
X28530000Y-63070000D03*
%TO.P,J2,18*%
%TO.N,PE7*%
X28530000Y-60530000D03*
%TO.P,J2,19*%
%TO.N,PE8*%
X31070000Y-63070000D03*
%TO.P,J2,20*%
%TO.N,PE9*%
X31070000Y-60530000D03*
%TO.P,J2,21*%
%TO.N,PF0*%
X33610000Y-63070000D03*
%TO.P,J2,22*%
%TO.N,PF1*%
X33610000Y-60530000D03*
%TO.P,J2,23*%
%TO.N,PF10*%
X36150000Y-63070000D03*
%TO.P,J2,24*%
%TO.N,PF11*%
X36150000Y-60530000D03*
%TO.P,J2,25*%
%TO.N,PF12*%
X38690000Y-63070000D03*
%TO.P,J2,26*%
%TO.N,PF13*%
X38690000Y-60530000D03*
%TO.P,J2,27*%
%TO.N,PF14*%
X41230000Y-63070000D03*
%TO.P,J2,28*%
%TO.N,PF15*%
X41230000Y-60530000D03*
%TO.P,J2,29*%
%TO.N,PF2*%
X43770000Y-63070000D03*
%TO.P,J2,30*%
%TO.N,PF3*%
X43770000Y-60530000D03*
%TO.P,J2,31*%
%TO.N,PF4*%
X46310000Y-63070000D03*
%TO.P,J2,32*%
%TO.N,PF5*%
X46310000Y-60530000D03*
%TO.P,J2,33*%
%TO.N,PF6*%
X48850000Y-63070000D03*
%TO.P,J2,34*%
%TO.N,PF7*%
X48850000Y-60530000D03*
%TO.P,J2,35*%
%TO.N,PF8*%
X51390000Y-63070000D03*
%TO.P,J2,36*%
%TO.N,PF9*%
X51390000Y-60530000D03*
%TO.P,J2,37*%
%TO.N,PG0*%
X53930000Y-63070000D03*
%TO.P,J2,38*%
%TO.N,PG1*%
X53930000Y-60530000D03*
%TO.P,J2,39*%
%TO.N,PG10*%
X56470000Y-63070000D03*
%TO.P,J2,40*%
%TO.N,PG11*%
X56470000Y-60530000D03*
%TO.P,J2,41*%
%TO.N,PG12*%
X59010000Y-63070000D03*
%TO.P,J2,42*%
%TO.N,PG13*%
X59010000Y-60530000D03*
%TO.P,J2,43*%
%TO.N,PG14*%
X61550000Y-63070000D03*
%TO.P,J2,44*%
%TO.N,PG15*%
X61550000Y-60530000D03*
%TO.P,J2,45*%
%TO.N,PG2*%
X64090000Y-63070000D03*
%TO.P,J2,46*%
%TO.N,PG3*%
X64090000Y-60530000D03*
%TO.P,J2,47*%
%TO.N,PG4*%
X66630000Y-63070000D03*
%TO.P,J2,48*%
%TO.N,PG5*%
X66630000Y-60530000D03*
%TO.P,J2,49*%
%TO.N,PG6*%
X69170000Y-63070000D03*
%TO.P,J2,50*%
%TO.N,PG7*%
X69170000Y-60530000D03*
%TO.P,J2,51*%
%TO.N,PG8*%
X71710000Y-63070000D03*
%TO.P,J2,52*%
%TO.N,PG9*%
X71710000Y-60530000D03*
%TO.P,J2,53*%
%TO.N,+3V3*%
X74250000Y-63070000D03*
%TO.P,J2,54*%
X74250000Y-60530000D03*
%TO.P,J2,55*%
%TO.N,GND*%
X76790000Y-63070000D03*
%TO.P,J2,56*%
X76790000Y-60530000D03*
%TD*%
D12*
%TO.P,C27,1*%
%TO.N,COMP*%
X23520000Y-22000000D03*
%TO.P,C27,2*%
%TO.N,GND*%
X24480000Y-22000000D03*
%TD*%
D20*
%TO.P,J5,1*%
%TO.N,+3V3*%
X10000000Y-52460000D03*
D21*
%TO.P,J5,2*%
%TO.N,BOOT0*%
X10000000Y-55000000D03*
%TO.P,J5,3*%
%TO.N,GND*%
X10000000Y-57540000D03*
%TD*%
D33*
%TO.P,TP3,1*%
%TO.N,VCAP*%
X78500000Y-46000000D03*
%TD*%
%TO.P,TP1,1*%
%TO.N,+3V3*%
X78500000Y-40000000D03*
%TD*%
D34*
%TO.P,C61,1*%
%TO.N,+3V3*%
X18309458Y-36558206D03*
%TO.P,C61,2*%
%TO.N,GND*%
X17355942Y-36669594D03*
%TD*%
D29*
%TO.P,C72,1*%
%TO.N,+3V3*%
X61225000Y-44000000D03*
%TO.P,C72,2*%
%TO.N,GND*%
X62775000Y-44000000D03*
%TD*%
D33*
%TO.P,TP6,1*%
%TO.N,PH*%
X78500000Y-55000000D03*
%TD*%
D35*
%TO.P,C63,1*%
%TO.N,+3V3*%
X40781885Y-48108635D03*
%TO.P,C63,2*%
%TO.N,GND*%
X40670115Y-47155165D03*
%TD*%
D36*
%TO.P,C70,1*%
%TO.N,+3V3*%
X32711399Y-7299998D03*
%TO.P,C70,2*%
%TO.N,GND*%
X32638201Y-8257202D03*
%TD*%
D25*
%TO.P,H3,1*%
%TO.N,GND*%
X30000000Y-55000000D03*
%TD*%
D33*
%TO.P,TP2,1*%
%TO.N,GND*%
X78500000Y-43000000D03*
%TD*%
D10*
%TO.P,C50,1*%
%TO.N,OSC_IN*%
X33500000Y-49020000D03*
%TO.P,C50,2*%
%TO.N,GND*%
X33500000Y-49980000D03*
%TD*%
D37*
%TO.P,D6,1*%
%TO.N,+5V*%
X9000000Y-42000000D03*
%TO.P,D6,2*%
%TO.N,5VIN*%
X9000000Y-46000000D03*
%TD*%
D13*
%TO.P,R21,1*%
%TO.N,+3V3*%
X31000000Y-14990000D03*
%TO.P,R21,2*%
%TO.N,VBAT*%
X31000000Y-16010000D03*
%TD*%
%TO.P,R16,1*%
%TO.N,FB*%
X22000000Y-21990000D03*
%TO.P,R16,2*%
%TO.N,GND*%
X22000000Y-23010000D03*
%TD*%
D10*
%TO.P,C45,1*%
%TO.N,VREF+*%
X23000000Y-37020000D03*
%TO.P,C45,2*%
%TO.N,GND*%
X23000000Y-37980000D03*
%TD*%
D38*
%TO.P,X2,1*%
%TO.N,OSC32_IN*%
X48250000Y-46000000D03*
%TO.P,X2,2*%
%TO.N,OSC32_OUT*%
X45750000Y-46000000D03*
%TD*%
D39*
%TO.P,C65,1*%
%TO.N,+3V3*%
X53800203Y-47012155D03*
%TO.P,C65,2*%
%TO.N,GND*%
X54409197Y-46270045D03*
%TD*%
D30*
%TO.P,D8,1*%
%TO.N,GND*%
X66000000Y-41712500D03*
%TO.P,D8,2*%
%TO.N,LED_PWR*%
X66000000Y-43287500D03*
%TD*%
D40*
%TO.P,C67,1*%
%TO.N,+3V3*%
X56270045Y-20590803D03*
%TO.P,C67,2*%
%TO.N,GND*%
X57012155Y-21199797D03*
%TD*%
D10*
%TO.P,C53,1*%
%TO.N,OSC32_OUT*%
X49000000Y-49020000D03*
%TO.P,C53,2*%
%TO.N,GND*%
X49000000Y-49980000D03*
%TD*%
D20*
%TO.P,J1,1*%
%TO.N,PA0*%
X8210000Y-4470000D03*
D21*
%TO.P,J1,2*%
%TO.N,PA1*%
X8210000Y-1930000D03*
%TO.P,J1,3*%
%TO.N,PA10*%
X10750000Y-4470000D03*
%TO.P,J1,4*%
%TO.N,PA15*%
X10750000Y-1930000D03*
%TO.P,J1,5*%
%TO.N,PA2*%
X13290000Y-4470000D03*
%TO.P,J1,6*%
%TO.N,PA3*%
X13290000Y-1930000D03*
%TO.P,J1,7*%
%TO.N,PA4*%
X15830000Y-4470000D03*
%TO.P,J1,8*%
%TO.N,PA5*%
X15830000Y-1930000D03*
%TO.P,J1,9*%
%TO.N,PA6*%
X18370000Y-4470000D03*
%TO.P,J1,10*%
%TO.N,PA7*%
X18370000Y-1930000D03*
%TO.P,J1,11*%
%TO.N,PA8*%
X20910000Y-4470000D03*
%TO.P,J1,12*%
%TO.N,PA9*%
X20910000Y-1930000D03*
%TO.P,J1,13*%
%TO.N,PB0*%
X23450000Y-4470000D03*
%TO.P,J1,14*%
%TO.N,PB1*%
X23450000Y-1930000D03*
%TO.P,J1,15*%
%TO.N,PB10*%
X25990000Y-4470000D03*
%TO.P,J1,16*%
%TO.N,PB11*%
X25990000Y-1930000D03*
%TO.P,J1,17*%
%TO.N,PB12*%
X28530000Y-4470000D03*
%TO.P,J1,18*%
%TO.N,PB13*%
X28530000Y-1930000D03*
%TO.P,J1,19*%
%TO.N,PB14*%
X31070000Y-4470000D03*
%TO.P,J1,20*%
%TO.N,PB15*%
X31070000Y-1930000D03*
%TO.P,J1,21*%
%TO.N,PB2*%
X33610000Y-4470000D03*
%TO.P,J1,22*%
%TO.N,PB4*%
X33610000Y-1930000D03*
%TO.P,J1,23*%
%TO.N,PB5*%
X36150000Y-4470000D03*
%TO.P,J1,24*%
%TO.N,PB6*%
X36150000Y-1930000D03*
%TO.P,J1,25*%
%TO.N,PB7*%
X38690000Y-4470000D03*
%TO.P,J1,26*%
%TO.N,PB8*%
X38690000Y-1930000D03*
%TO.P,J1,27*%
%TO.N,PB9*%
X41230000Y-4470000D03*
%TO.P,J1,28*%
%TO.N,PC0*%
X41230000Y-1930000D03*
%TO.P,J1,29*%
%TO.N,PC1*%
X43770000Y-4470000D03*
%TO.P,J1,30*%
%TO.N,PC10*%
X43770000Y-1930000D03*
%TO.P,J1,31*%
%TO.N,PC11*%
X46310000Y-4470000D03*
%TO.P,J1,32*%
%TO.N,PC12*%
X46310000Y-1930000D03*
%TO.P,J1,33*%
%TO.N,PC13*%
X48850000Y-4470000D03*
%TO.P,J1,34*%
%TO.N,PC2_C*%
X48850000Y-1930000D03*
%TO.P,J1,35*%
%TO.N,PC3_C*%
X51390000Y-4470000D03*
%TO.P,J1,36*%
%TO.N,PC4*%
X51390000Y-1930000D03*
%TO.P,J1,37*%
%TO.N,PC5*%
X53930000Y-4470000D03*
%TO.P,J1,38*%
%TO.N,PC6*%
X53930000Y-1930000D03*
%TO.P,J1,39*%
%TO.N,PC7*%
X56470000Y-4470000D03*
%TO.P,J1,40*%
%TO.N,PC8*%
X56470000Y-1930000D03*
%TO.P,J1,41*%
%TO.N,PC9*%
X59010000Y-4470000D03*
%TO.P,J1,42*%
%TO.N,PD0*%
X59010000Y-1930000D03*
%TO.P,J1,43*%
%TO.N,PD1*%
X61550000Y-4470000D03*
%TO.P,J1,44*%
%TO.N,PD10*%
X61550000Y-1930000D03*
%TO.P,J1,45*%
%TO.N,PD11*%
X64090000Y-4470000D03*
%TO.P,J1,46*%
%TO.N,PD12*%
X64090000Y-1930000D03*
%TO.P,J1,47*%
%TO.N,PD13*%
X66630000Y-4470000D03*
%TO.P,J1,48*%
%TO.N,PD14*%
X66630000Y-1930000D03*
%TO.P,J1,49*%
%TO.N,PD15*%
X69170000Y-4470000D03*
%TO.P,J1,50*%
%TO.N,PD2*%
X69170000Y-1930000D03*
%TO.P,J1,51*%
%TO.N,PD3*%
X71710000Y-4470000D03*
%TO.P,J1,52*%
%TO.N,PD4*%
X71710000Y-1930000D03*
%TO.P,J1,53*%
%TO.N,PD5*%
X74250000Y-4470000D03*
%TO.P,J1,54*%
%TO.N,+3V3*%
X74250000Y-1930000D03*
%TO.P,J1,55*%
%TO.N,GND*%
X76790000Y-4470000D03*
%TO.P,J1,56*%
X76790000Y-1930000D03*
%TD*%
D41*
%TO.P,C41,1*%
%TO.N,VCAP*%
X59653899Y-19120446D03*
%TO.P,C41,2*%
%TO.N,GND*%
X60907701Y-20031754D03*
%TD*%
D42*
%TO.P,U3,1*%
%TO.N,USB_DP*%
X18550000Y-26137500D03*
%TO.P,U3,2*%
%TO.N,GND*%
X19500000Y-26137500D03*
%TO.P,U3,3*%
%TO.N,USB_DM*%
X20450000Y-26137500D03*
%TO.P,U3,4*%
%TO.N,USB_DM_P*%
X20450000Y-23862500D03*
%TO.P,U3,5*%
%TO.N,+5V*%
X19500000Y-23862500D03*
%TO.P,U3,6*%
%TO.N,USB_DP_P*%
X18550000Y-23862500D03*
%TD*%
D43*
%TO.P,C44,1*%
%TO.N,VREF+*%
X23000000Y-32725000D03*
%TO.P,C44,2*%
%TO.N,GND*%
X23000000Y-34275000D03*
%TD*%
D44*
%TO.P,C62,1*%
%TO.N,+3V3*%
X30505011Y-49779274D03*
%TO.P,C62,2*%
%TO.N,GND*%
X29940589Y-49002726D03*
%TD*%
D13*
%TO.P,R10,1*%
%TO.N,CC1*%
X19000000Y-29990000D03*
%TO.P,R10,2*%
%TO.N,GND*%
X19000000Y-31010000D03*
%TD*%
D10*
%TO.P,C20,1*%
%TO.N,+5V*%
X10000000Y-18520000D03*
%TO.P,C20,2*%
%TO.N,GND*%
X10000000Y-19480000D03*
%TD*%
D45*
%TO.P,R14,1*%
%TO.N,3V3_SW*%
X32490000Y-12000000D03*
%TO.P,R14,2*%
%TO.N,+3V3*%
X33510000Y-12000000D03*
%TD*%
D46*
%TO.P,C60,1*%
%TO.N,+3V3*%
X20160044Y-39254146D03*
%TO.P,C60,2*%
%TO.N,GND*%
X19336956Y-38760054D03*
%TD*%
D13*
%TO.P,R12,1*%
%TO.N,VBUS*%
X15000000Y-30490000D03*
%TO.P,R12,2*%
%TO.N,VBUS_SENSE*%
X15000000Y-31510000D03*
%TD*%
D47*
%TO.P,C40,1*%
%TO.N,VCAP*%
X55660835Y-50735341D03*
%TO.P,C40,2*%
%TO.N,GND*%
X56609365Y-49509459D03*
%TD*%
D45*
%TO.P,R17,1*%
%TO.N,COMP*%
X14990000Y-24500000D03*
%TO.P,R17,2*%
%TO.N,COMP_M*%
X16010000Y-24500000D03*
%TD*%
D43*
%TO.P,C42,1*%
%TO.N,VDDA*%
X25500000Y-32725000D03*
%TO.P,C42,2*%
%TO.N,GND*%
X25500000Y-34275000D03*
%TD*%
D33*
%TO.P,TP4,1*%
%TO.N,NRST*%
X78500000Y-49000000D03*
%TD*%
D38*
%TO.P,X1,1*%
%TO.N,OSC_IN*%
X36250000Y-46000000D03*
%TO.P,X1,2*%
%TO.N,OSC_OUT*%
X33750000Y-46000000D03*
%TD*%
D13*
%TO.P,R25,1*%
%TO.N,PB0*%
X70000000Y-37490000D03*
%TO.P,R25,2*%
%TO.N,LED_USER*%
X70000000Y-38510000D03*
%TD*%
D37*
%TO.P,D7,1*%
%TO.N,PH*%
X25500000Y-15500000D03*
%TO.P,D7,2*%
%TO.N,GND*%
X25500000Y-19500000D03*
%TD*%
D45*
%TO.P,R23,1*%
%TO.N,BOOT0*%
X13490000Y-55000000D03*
%TO.P,R23,2*%
%TO.N,GND*%
X14510000Y-55000000D03*
%TD*%
D48*
%TO.P,D5,1*%
%TO.N,+5V*%
X29500000Y-18500000D03*
%TO.P,D5,2*%
%TO.N,VBUS_F*%
X33500000Y-18500000D03*
%TD*%
D45*
%TO.P,R20,1*%
%TO.N,VDDA*%
X26990000Y-40000000D03*
%TO.P,R20,2*%
%TO.N,VREF+*%
X28010000Y-40000000D03*
%TD*%
D10*
%TO.P,C43,1*%
%TO.N,VDDA*%
X25500000Y-37020000D03*
%TO.P,C43,2*%
%TO.N,GND*%
X25500000Y-37980000D03*
%TD*%
D11*
%TO.P,SW1,1*%
%TO.N,NRST*%
X21750000Y-42750000D03*
X28250000Y-42750000D03*
%TO.P,SW1,2*%
%TO.N,GND*%
X21750000Y-47250000D03*
X28250000Y-47250000D03*
%TD*%
D32*
%TO.P,C22,1*%
%TO.N,+5V*%
X17000000Y-19850000D03*
%TO.P,C22,2*%
%TO.N,GND*%
X17000000Y-21750000D03*
%TD*%
D33*
%TO.P,TP5,1*%
%TO.N,BOOT0*%
X78500000Y-52000000D03*
%TD*%
D49*
%TO.P,C69,1*%
%TO.N,+3V3*%
X38759309Y-13833743D03*
%TO.P,C69,2*%
%TO.N,GND*%
X38561091Y-14773057D03*
%TD*%
D50*
%TO.P,U1,1*%
%TO.N,PE2*%
X31837500Y-23750000D03*
%TO.P,U1,2*%
%TO.N,PE3*%
X31837500Y-24250000D03*
%TO.P,U1,3*%
%TO.N,PE4*%
X31837500Y-24750000D03*
%TO.P,U1,4*%
%TO.N,PE5*%
X31837500Y-25250000D03*
%TO.P,U1,5*%
%TO.N,PE6*%
X31837500Y-25750000D03*
%TO.P,U1,6*%
%TO.N,VBAT*%
X31837500Y-26250000D03*
%TO.P,U1,7*%
%TO.N,PC13*%
X31837500Y-26750000D03*
%TO.P,U1,8*%
%TO.N,OSC32_IN*%
X31837500Y-27250000D03*
%TO.P,U1,9*%
%TO.N,OSC32_OUT*%
X31837500Y-27750000D03*
%TO.P,U1,10*%
%TO.N,PF0*%
X31837500Y-28250000D03*
%TO.P,U1,11*%
%TO.N,PF1*%
X31837500Y-28750000D03*
%TO.P,U1,12*%
%TO.N,PF2*%
X31837500Y-29250000D03*
%TO.P,U1,13*%
%TO.N,PF3*%
X31837500Y-29750000D03*
%TO.P,U1,14*%
%TO.N,PF4*%
X31837500Y-30250000D03*
%TO.P,U1,15*%
%TO.N,PF5*%
X31837500Y-30750000D03*
%TO.P,U1,16*%
%TO.N,GND*%
X31837500Y-31250000D03*
%TO.P,U1,17*%
%TO.N,+3V3*%
X31837500Y-31750000D03*
%TO.P,U1,18*%
%TO.N,PF6*%
X31837500Y-32250000D03*
%TO.P,U1,19*%
%TO.N,PF7*%
X31837500Y-32750000D03*
%TO.P,U1,20*%
%TO.N,PF8*%
X31837500Y-33250000D03*
%TO.P,U1,21*%
%TO.N,PF9*%
X31837500Y-33750000D03*
%TO.P,U1,22*%
%TO.N,PF10*%
X31837500Y-34250000D03*
%TO.P,U1,23*%
%TO.N,OSC_IN*%
X31837500Y-34750000D03*
%TO.P,U1,24*%
%TO.N,OSC_OUT*%
X31837500Y-35250000D03*
%TO.P,U1,25*%
%TO.N,NRST*%
X31837500Y-35750000D03*
%TO.P,U1,26*%
%TO.N,PC0*%
X31837500Y-36250000D03*
%TO.P,U1,27*%
%TO.N,PC1*%
X31837500Y-36750000D03*
%TO.P,U1,28*%
%TO.N,PC2_C*%
X31837500Y-37250000D03*
%TO.P,U1,29*%
%TO.N,PC3_C*%
X31837500Y-37750000D03*
%TO.P,U1,30*%
%TO.N,+3V3*%
X31837500Y-38250000D03*
%TO.P,U1,31*%
%TO.N,GND*%
X31837500Y-38750000D03*
%TO.P,U1,32*%
%TO.N,VREF+*%
X31837500Y-39250000D03*
%TO.P,U1,33*%
%TO.N,VDDA*%
X31837500Y-39750000D03*
%TO.P,U1,34*%
%TO.N,PA0*%
X31837500Y-40250000D03*
%TO.P,U1,35*%
%TO.N,PA1*%
X31837500Y-40750000D03*
%TO.P,U1,36*%
%TO.N,PA2*%
X31837500Y-41250000D03*
D51*
%TO.P,U1,37*%
%TO.N,PA3*%
X33750000Y-43162500D03*
%TO.P,U1,38*%
%TO.N,GND*%
X34250000Y-43162500D03*
%TO.P,U1,39*%
%TO.N,+3V3*%
X34750000Y-43162500D03*
%TO.P,U1,40*%
%TO.N,PA4*%
X35250000Y-43162500D03*
%TO.P,U1,41*%
%TO.N,PA5*%
X35750000Y-43162500D03*
%TO.P,U1,42*%
%TO.N,PA6*%
X36250000Y-43162500D03*
%TO.P,U1,43*%
%TO.N,PA7*%
X36750000Y-43162500D03*
%TO.P,U1,44*%
%TO.N,PC4*%
X37250000Y-43162500D03*
%TO.P,U1,45*%
%TO.N,PC5*%
X37750000Y-43162500D03*
%TO.P,U1,46*%
%TO.N,PB0*%
X38250000Y-43162500D03*
%TO.P,U1,47*%
%TO.N,PB1*%
X38750000Y-43162500D03*
%TO.P,U1,48*%
%TO.N,PB2*%
X39250000Y-43162500D03*
%TO.P,U1,49*%
%TO.N,PF11*%
X39750000Y-43162500D03*
%TO.P,U1,50*%
%TO.N,PF12*%
X40250000Y-43162500D03*
%TO.P,U1,51*%
%TO.N,GND*%
X40750000Y-43162500D03*
%TO.P,U1,52*%
%TO.N,+3V3*%
X41250000Y-43162500D03*
%TO.P,U1,53*%
%TO.N,PF13*%
X41750000Y-43162500D03*
%TO.P,U1,54*%
%TO.N,PF14*%
X42250000Y-43162500D03*
%TO.P,U1,55*%
%TO.N,PF15*%
X42750000Y-43162500D03*
%TO.P,U1,56*%
%TO.N,PG0*%
X43250000Y-43162500D03*
%TO.P,U1,57*%
%TO.N,PG1*%
X43750000Y-43162500D03*
%TO.P,U1,58*%
%TO.N,PE7*%
X44250000Y-43162500D03*
%TO.P,U1,59*%
%TO.N,PE8*%
X44750000Y-43162500D03*
%TO.P,U1,60*%
%TO.N,PE9*%
X45250000Y-43162500D03*
%TO.P,U1,61*%
%TO.N,GND*%
X45750000Y-43162500D03*
%TO.P,U1,62*%
%TO.N,+3V3*%
X46250000Y-43162500D03*
%TO.P,U1,63*%
%TO.N,PE10*%
X46750000Y-43162500D03*
%TO.P,U1,64*%
%TO.N,PE11*%
X47250000Y-43162500D03*
%TO.P,U1,65*%
%TO.N,PE12*%
X47750000Y-43162500D03*
%TO.P,U1,66*%
%TO.N,PE13*%
X48250000Y-43162500D03*
%TO.P,U1,67*%
%TO.N,PE14*%
X48750000Y-43162500D03*
%TO.P,U1,68*%
%TO.N,PE15*%
X49250000Y-43162500D03*
%TO.P,U1,69*%
%TO.N,PB10*%
X49750000Y-43162500D03*
%TO.P,U1,70*%
%TO.N,PB11*%
X50250000Y-43162500D03*
%TO.P,U1,71*%
%TO.N,VCAP*%
X50750000Y-43162500D03*
%TO.P,U1,72*%
%TO.N,+3V3*%
X51250000Y-43162500D03*
D50*
%TO.P,U1,73*%
%TO.N,PB12*%
X53162500Y-41250000D03*
%TO.P,U1,74*%
%TO.N,PB13*%
X53162500Y-40750000D03*
%TO.P,U1,75*%
%TO.N,PB14*%
X53162500Y-40250000D03*
%TO.P,U1,76*%
%TO.N,PB15*%
X53162500Y-39750000D03*
%TO.P,U1,77*%
%TO.N,PD8*%
X53162500Y-39250000D03*
%TO.P,U1,78*%
%TO.N,PD9*%
X53162500Y-38750000D03*
%TO.P,U1,79*%
%TO.N,PD10*%
X53162500Y-38250000D03*
%TO.P,U1,80*%
%TO.N,PD11*%
X53162500Y-37750000D03*
%TO.P,U1,81*%
%TO.N,PD12*%
X53162500Y-37250000D03*
%TO.P,U1,82*%
%TO.N,PD13*%
X53162500Y-36750000D03*
%TO.P,U1,83*%
%TO.N,GND*%
X53162500Y-36250000D03*
%TO.P,U1,84*%
%TO.N,+3V3*%
X53162500Y-35750000D03*
%TO.P,U1,85*%
%TO.N,PD14*%
X53162500Y-35250000D03*
%TO.P,U1,86*%
%TO.N,PD15*%
X53162500Y-34750000D03*
%TO.P,U1,87*%
%TO.N,PG2*%
X53162500Y-34250000D03*
%TO.P,U1,88*%
%TO.N,PG3*%
X53162500Y-33750000D03*
%TO.P,U1,89*%
%TO.N,PG4*%
X53162500Y-33250000D03*
%TO.P,U1,90*%
%TO.N,PG5*%
X53162500Y-32750000D03*
%TO.P,U1,91*%
%TO.N,PG6*%
X53162500Y-32250000D03*
%TO.P,U1,92*%
%TO.N,PG7*%
X53162500Y-31750000D03*
%TO.P,U1,93*%
%TO.N,PG8*%
X53162500Y-31250000D03*
%TO.P,U1,94*%
%TO.N,GND*%
X53162500Y-30750000D03*
%TO.P,U1,95*%
%TO.N,+3V3*%
X53162500Y-30250000D03*
%TO.P,U1,96*%
%TO.N,PC6*%
X53162500Y-29750000D03*
%TO.P,U1,97*%
%TO.N,PC7*%
X53162500Y-29250000D03*
%TO.P,U1,98*%
%TO.N,PC8*%
X53162500Y-28750000D03*
%TO.P,U1,99*%
%TO.N,PC9*%
X53162500Y-28250000D03*
%TO.P,U1,100*%
%TO.N,PA8*%
X53162500Y-27750000D03*
%TO.P,U1,101*%
%TO.N,PA9*%
X53162500Y-27250000D03*
%TO.P,U1,102*%
%TO.N,PA10*%
X53162500Y-26750000D03*
%TO.P,U1,103*%
%TO.N,USB_DM*%
X53162500Y-26250000D03*
%TO.P,U1,104*%
%TO.N,USB_DP*%
X53162500Y-25750000D03*
%TO.P,U1,105*%
%TO.N,PA13*%
X53162500Y-25250000D03*
%TO.P,U1,106*%
%TO.N,VCAP*%
X53162500Y-24750000D03*
%TO.P,U1,107*%
%TO.N,GND*%
X53162500Y-24250000D03*
%TO.P,U1,108*%
%TO.N,+3V3*%
X53162500Y-23750000D03*
D51*
%TO.P,U1,109*%
%TO.N,PA14*%
X51250000Y-21837500D03*
%TO.P,U1,110*%
%TO.N,PA15*%
X50750000Y-21837500D03*
%TO.P,U1,111*%
%TO.N,PC10*%
X50250000Y-21837500D03*
%TO.P,U1,112*%
%TO.N,PC11*%
X49750000Y-21837500D03*
%TO.P,U1,113*%
%TO.N,PC12*%
X49250000Y-21837500D03*
%TO.P,U1,114*%
%TO.N,PD0*%
X48750000Y-21837500D03*
%TO.P,U1,115*%
%TO.N,PD1*%
X48250000Y-21837500D03*
%TO.P,U1,116*%
%TO.N,PD2*%
X47750000Y-21837500D03*
%TO.P,U1,117*%
%TO.N,PD3*%
X47250000Y-21837500D03*
%TO.P,U1,118*%
%TO.N,PD4*%
X46750000Y-21837500D03*
%TO.P,U1,119*%
%TO.N,PD5*%
X46250000Y-21837500D03*
%TO.P,U1,120*%
%TO.N,GND*%
X45750000Y-21837500D03*
%TO.P,U1,121*%
%TO.N,+3V3*%
X45250000Y-21837500D03*
%TO.P,U1,122*%
%TO.N,PD6*%
X44750000Y-21837500D03*
%TO.P,U1,123*%
%TO.N,PD7*%
X44250000Y-21837500D03*
%TO.P,U1,124*%
%TO.N,PG9*%
X43750000Y-21837500D03*
%TO.P,U1,125*%
%TO.N,PG10*%
X43250000Y-21837500D03*
%TO.P,U1,126*%
%TO.N,PG11*%
X42750000Y-21837500D03*
%TO.P,U1,127*%
%TO.N,PG12*%
X42250000Y-21837500D03*
%TO.P,U1,128*%
%TO.N,PG13*%
X41750000Y-21837500D03*
%TO.P,U1,129*%
%TO.N,PG14*%
X41250000Y-21837500D03*
%TO.P,U1,130*%
%TO.N,GND*%
X40750000Y-21837500D03*
%TO.P,U1,131*%
%TO.N,+3V3*%
X40250000Y-21837500D03*
%TO.P,U1,132*%
%TO.N,PG15*%
X39750000Y-21837500D03*
%TO.P,U1,133*%
%TO.N,PB3*%
X39250000Y-21837500D03*
%TO.P,U1,134*%
%TO.N,PB4*%
X38750000Y-21837500D03*
%TO.P,U1,135*%
%TO.N,PB5*%
X38250000Y-21837500D03*
%TO.P,U1,136*%
%TO.N,PB6*%
X37750000Y-21837500D03*
%TO.P,U1,137*%
%TO.N,PB7*%
X37250000Y-21837500D03*
%TO.P,U1,138*%
%TO.N,BOOT0*%
X36750000Y-21837500D03*
%TO.P,U1,139*%
%TO.N,PB8*%
X36250000Y-21837500D03*
%TO.P,U1,140*%
%TO.N,PB9*%
X35750000Y-21837500D03*
%TO.P,U1,141*%
%TO.N,PE0*%
X35250000Y-21837500D03*
%TO.P,U1,142*%
%TO.N,PE1*%
X34750000Y-21837500D03*
%TO.P,U1,143*%
%TO.N,PDR_ON*%
X34250000Y-21837500D03*
%TO.P,U1,144*%
%TO.N,+3V3*%
X33750000Y-21837500D03*
%TD*%
D20*
%TO.P,J6,1*%
%TO.N,5VIN*%
X3200000Y-46730000D03*
D21*
%TO.P,J6,2*%
%TO.N,GND*%
X3200000Y-49270000D03*
%TD*%
D52*
%TO.P,L1,1*%
%TO.N,PH*%
X24275000Y-12000000D03*
%TO.P,L1,2*%
%TO.N,3V3_SW*%
X29725000Y-12000000D03*
%TD*%
D12*
%TO.P,C55,1*%
%TO.N,PC13*%
X71520000Y-24000000D03*
%TO.P,C55,2*%
%TO.N,GND*%
X72480000Y-24000000D03*
%TD*%
D53*
%TO.P,C66,1*%
%TO.N,+3V3*%
X57007856Y-37201953D03*
%TO.P,C66,2*%
%TO.N,GND*%
X57926144Y-36922047D03*
%TD*%
D54*
%TO.N,+3V3*%
X31261900Y-50040600D03*
X22558800Y-18431200D03*
X55971000Y-28076400D03*
X33194500Y-22469100D03*
X54607900Y-22556200D03*
X77539300Y-39743500D03*
X50494200Y-53621300D03*
X25678700Y-27450500D03*
X20121500Y-38370200D03*
X66723900Y-37873300D03*
X45112600Y-23012500D03*
X25774400Y-36096300D03*
X41418800Y-48586700D03*
X14925600Y-9137500D03*
X61551700Y-44905400D03*
%TO.N,GND*%
X56149000Y-37851700D03*
X79157500Y-42371600D03*
X45520800Y-44328300D03*
X52008900Y-30625500D03*
X57440500Y-30041700D03*
X45887600Y-18551000D03*
X33387600Y-8260800D03*
%TO.N,PC13*%
X33677500Y-26905000D03*
X51940100Y-24096400D03*
X70972900Y-24547100D03*
%TO.N,COMP_M*%
X15279500Y-25230500D03*
%TO.N,LED_PWR*%
X66690500Y-42597000D03*
X66550800Y-39060800D03*
%TO.N,VBUS*%
X15759300Y-30434800D03*
X26049900Y-23098300D03*
X9950000Y-20324800D03*
%TO.N,CC1*%
X6250000Y-20324900D03*
X18449700Y-29439700D03*
%TO.N,USB_DP_P*%
X17811100Y-23761000D03*
%TO.N,USB_DM_P*%
X20450000Y-22777100D03*
X7732200Y-20300900D03*
%TO.N,CC2*%
X9250000Y-20316400D03*
X22500000Y-29309500D03*
%TO.N,PA13*%
X52022500Y-25250000D03*
%TO.N,PA14*%
X51435500Y-20687800D03*
%TO.N,PB3*%
X39250000Y-20685500D03*
%TO.N,NRST*%
X30668500Y-35917500D03*
X43467000Y-39915700D03*
X21222600Y-33020000D03*
X77064100Y-46221400D03*
%TO.N,VBUS_F*%
X32179800Y-19820200D03*
%TO.N,+5V*%
X14362900Y-15034200D03*
X10122900Y-40505900D03*
X28209600Y-17209600D03*
X12760200Y-18355500D03*
X12760200Y-22411600D03*
%TO.N,COMP*%
X22976700Y-21455100D03*
X16325100Y-23164900D03*
X21888400Y-15596100D03*
%TO.N,PH*%
X27089900Y-15500000D03*
X77830600Y-55669400D03*
X52080400Y-49239500D03*
%TO.N,OSC_OUT*%
X32788100Y-45980600D03*
X36417300Y-35250000D03*
%TO.N,PDR_ON*%
X29526500Y-27990000D03*
X33963400Y-23439400D03*
%TO.N,OSC32_IN*%
X36938700Y-30094200D03*
X46226700Y-49091800D03*
X33022100Y-26948600D03*
X49164900Y-46188200D03*
%TO.N,PD6*%
X45104000Y-20694400D03*
X43741900Y-38358800D03*
%TO.N,PD7*%
X41815800Y-38307700D03*
X44596100Y-20122200D03*
%TO.N,PD8*%
X51654400Y-39327900D03*
%TO.N,PD9*%
X52004100Y-38750000D03*
%TO.N,PE0*%
X35091900Y-23095400D03*
X26349800Y-37175500D03*
%TO.N,PE1*%
X17294700Y-29000000D03*
X34440100Y-22992700D03*
%TO.N,PE10*%
X46334300Y-44311200D03*
X39822200Y-47468800D03*
%TO.N,PE11*%
X47250000Y-44310200D03*
%TO.N,PE12*%
X47338400Y-44978600D03*
%TO.N,PE13*%
X48250000Y-42008700D03*
%TO.N,PE14*%
X48651800Y-44319500D03*
%TO.N,PE15*%
X49303600Y-44346400D03*
X22013700Y-62220800D03*
%TO.N,PE2*%
X28960700Y-25159500D03*
%TO.N,PE3*%
X29707300Y-24593000D03*
%TO.N,PE4*%
X29829200Y-25244800D03*
%TO.N,PE5*%
X27362400Y-26405900D03*
%TO.N,PE6*%
X29010700Y-26581300D03*
%TO.N,PE7*%
X44250000Y-42003800D03*
%TO.N,PE8*%
X44774300Y-44303100D03*
X33797700Y-57760200D03*
%TO.N,PE9*%
X45333400Y-41989300D03*
X44265000Y-46606100D03*
%TO.N,PF0*%
X33013500Y-28568900D03*
%TO.N,PF1*%
X33532900Y-29045700D03*
%TO.N,PF10*%
X30686300Y-34250000D03*
%TO.N,PF11*%
X39953300Y-44510100D03*
%TO.N,PF12*%
X39616300Y-41793200D03*
%TO.N,PF13*%
X41751600Y-44747600D03*
%TO.N,PF14*%
X42250000Y-44314500D03*
%TO.N,PF15*%
X42750000Y-44754900D03*
%TO.N,PF2*%
X33078300Y-29522400D03*
%TO.N,PF3*%
X46576600Y-58730100D03*
X33619800Y-30065400D03*
D55*
%TO.N,PF4*%
X30637500Y-30250000D03*
D54*
%TO.N,PF5*%
X33183700Y-30750000D03*
%TO.N,PF6*%
X33455000Y-32250000D03*
%TO.N,PF7*%
X30509800Y-32562500D03*
%TO.N,PF8*%
X37111800Y-33493800D03*
X34268900Y-33250000D03*
%TO.N,PF9*%
X41816600Y-54456100D03*
X32979000Y-34005100D03*
%TO.N,PG0*%
X43250000Y-44309700D03*
%TO.N,PG1*%
X43515600Y-42021200D03*
%TO.N,PG10*%
X43378100Y-20680200D03*
%TO.N,PG11*%
X42901300Y-20156900D03*
%TO.N,PG12*%
X42423700Y-20601100D03*
%TO.N,PG13*%
X41901600Y-20177500D03*
%TO.N,PG14*%
X41470200Y-20668000D03*
%TO.N,PG15*%
X39575500Y-22985500D03*
X50177400Y-25568300D03*
%TO.N,PG2*%
X55406600Y-34250000D03*
%TO.N,PG3*%
X56838000Y-33858900D03*
%TO.N,PG4*%
X52015600Y-33714600D03*
%TO.N,PG5*%
X52009700Y-32750000D03*
%TO.N,PG6*%
X54303600Y-32673000D03*
%TO.N,PG7*%
X54323800Y-31854800D03*
%TO.N,PG8*%
X56180900Y-31375000D03*
%TO.N,PG9*%
X44053200Y-20516200D03*
%TO.N,BOOT0*%
X77973500Y-52765100D03*
X36750000Y-22977600D03*
%TO.N,VCAP*%
X54589300Y-24872900D03*
X59007300Y-19767000D03*
X50751600Y-44745700D03*
X77664000Y-46711900D03*
%TO.N,OSC_IN*%
X32992900Y-34750000D03*
X34372800Y-48898300D03*
%TO.N,VBAT*%
X30697400Y-26364200D03*
X30331200Y-15595600D03*
%TO.N,OSC32_OUT*%
X44844300Y-45821000D03*
X40607700Y-27654100D03*
%TO.N,PA0*%
X28803900Y-40131700D03*
%TO.N,PA1*%
X29420000Y-40437400D03*
%TO.N,PA10*%
X52020900Y-26628300D03*
X41621400Y-17094000D03*
%TO.N,PA15*%
X50933800Y-20227400D03*
%TO.N,PA2*%
X29838100Y-40961400D03*
%TO.N,PA3*%
X32142500Y-43162500D03*
%TO.N,PA4*%
X31784300Y-44035600D03*
%TO.N,PA5*%
X19481500Y-6152700D03*
X32380000Y-44512300D03*
%TO.N,PA6*%
X36459700Y-44303900D03*
%TO.N,PA7*%
X36727400Y-42015400D03*
%TO.N,PA8*%
X40773700Y-6334400D03*
X51186200Y-27669000D03*
%TO.N,PA9*%
X47245000Y-19259200D03*
X51580300Y-27125500D03*
%TO.N,PB0*%
X38249600Y-44758100D03*
X69277400Y-37204500D03*
%TO.N,PB1*%
X39583300Y-45229900D03*
D55*
%TO.N,PB10*%
X48950000Y-41776859D03*
D54*
%TO.N,PB11*%
X50250000Y-42017600D03*
D55*
X50250000Y-46162500D03*
D54*
%TO.N,PB12*%
X51789200Y-41125600D03*
%TO.N,PB13*%
X54685200Y-40750000D03*
X48737000Y-38358800D03*
%TO.N,PB14*%
X51753600Y-40356900D03*
%TO.N,PB15*%
X51133900Y-39880100D03*
%TO.N,PB2*%
X40051000Y-28130800D03*
X38359500Y-42015500D03*
%TO.N,PB4*%
X38335400Y-20677200D03*
%TO.N,PB5*%
X38255800Y-22978200D03*
%TO.N,PB6*%
X37604000Y-22978900D03*
%TO.N,PB7*%
X37396000Y-20684700D03*
%TO.N,PB8*%
X36672900Y-20697600D03*
%TO.N,PB9*%
X36021100Y-20542400D03*
%TO.N,PC0*%
X39375100Y-26918500D03*
X32979000Y-36250000D03*
%TO.N,PC1*%
X30644700Y-36569300D03*
%TO.N,PC10*%
X50482000Y-20697600D03*
%TO.N,PC11*%
X47745600Y-18006700D03*
%TO.N,PC12*%
X49250000Y-22998700D03*
%TO.N,PC2_C*%
X32990400Y-36929700D03*
X41339100Y-29286300D03*
%TO.N,PC3_C*%
X33038600Y-37666500D03*
%TO.N,PC4*%
X37122700Y-44305300D03*
X51822700Y-28481900D03*
X37210400Y-35867300D03*
%TO.N,PC5*%
X37774500Y-44305100D03*
%TO.N,PC6*%
X54307700Y-29623900D03*
%TO.N,PC7*%
X55188800Y-29125500D03*
%TO.N,PC8*%
X54749900Y-28624500D03*
%TO.N,PC9*%
X54607900Y-27915000D03*
X56104500Y-6268700D03*
%TO.N,PD0*%
X49038600Y-20684400D03*
%TO.N,PD1*%
X61550000Y-13179600D03*
X49118700Y-19935800D03*
%TO.N,PD10*%
X57788700Y-38081500D03*
%TO.N,PD11*%
X55448700Y-37346000D03*
%TO.N,PD12*%
X51212700Y-37604300D03*
X56186200Y-34338400D03*
%TO.N,PD13*%
X55582300Y-36694200D03*
%TO.N,PD14*%
X55544200Y-35250000D03*
%TO.N,PD15*%
X67121300Y-27350200D03*
X52008000Y-34750000D03*
%TO.N,PD2*%
X47750000Y-20230600D03*
%TO.N,PD3*%
X47250000Y-20671600D03*
%TO.N,PD4*%
X46750000Y-20244800D03*
%TO.N,PD5*%
X46250000Y-20685500D03*
%TO.N,USB_DP*%
X51363900Y-25696000D03*
X18550000Y-25054400D03*
%TO.N,USB_DM*%
X50894100Y-26155000D03*
X21170300Y-26137500D03*
%TD*%
%TO.N,+3V3*%
D56*
X41186800Y-45684100D02*
X41186800Y-44239900D01*
X40243200Y-41241500D02*
X34750000Y-41241500D01*
D57*
X41076500Y-42124500D02*
X41250000Y-42124500D01*
D56*
X41418800Y-45916100D02*
X41186800Y-45684100D01*
D57*
X34750000Y-38299500D02*
X31887000Y-38299500D01*
D56*
X46250000Y-43162500D02*
X46250000Y-42116300D01*
X20160000Y-39254100D02*
X20160000Y-38408700D01*
X54932100Y-35750000D02*
X54932100Y-35799500D01*
X56807200Y-30200500D02*
X58041700Y-31435000D01*
X20121500Y-38370200D02*
X18309500Y-36558200D01*
X40000000Y-15074400D02*
X38759300Y-13833700D01*
X41250000Y-43162500D02*
X41250000Y-42124500D01*
X50565700Y-35750000D02*
X45528400Y-40787300D01*
X56842900Y-36516900D02*
X56125500Y-35799500D01*
X31934800Y-7991600D02*
X31934800Y-10424800D01*
X58041700Y-35318100D02*
X63828100Y-35318100D01*
X78243500Y-39743500D02*
X78500000Y-40000000D01*
D57*
X53212000Y-30200500D02*
X53162500Y-30250000D01*
X54932100Y-35750000D02*
X53162500Y-35750000D01*
D56*
X31062600Y-31750000D02*
X28500000Y-29187400D01*
X40543000Y-41394700D02*
X45528400Y-41394700D01*
X61225000Y-44905400D02*
X61222600Y-44907800D01*
X40000000Y-16520000D02*
X45758600Y-16520000D01*
X54607900Y-22556200D02*
X54607900Y-22252900D01*
X35055700Y-19438600D02*
X33750000Y-20744300D01*
X30505000Y-49779300D02*
X31000600Y-49779300D01*
X45112600Y-22978500D02*
X45112600Y-23012500D01*
X41418800Y-48586700D02*
X41418800Y-45916100D01*
X54356300Y-22556200D02*
X54607900Y-22556200D01*
X26712500Y-36000000D02*
X28962500Y-38250000D01*
X33194500Y-22393000D02*
X33194500Y-22469100D01*
X31047500Y-14942500D02*
X31000000Y-14990000D01*
X34750000Y-43162500D02*
X34750000Y-41241500D01*
D57*
X56807200Y-30200500D02*
X53212000Y-30200500D01*
D56*
X27238200Y-29010000D02*
X25678700Y-27450500D01*
X58041700Y-35318100D02*
X56842900Y-36516900D01*
X34075000Y-7300000D02*
X32711400Y-7300000D01*
X61225000Y-44000000D02*
X61225000Y-44905400D01*
X66723900Y-37873300D02*
X66383300Y-37873300D01*
X32711400Y-7300000D02*
X32626400Y-7300000D01*
X35055700Y-16230700D02*
X35055700Y-19438600D01*
X35500000Y-8725000D02*
X34075000Y-7300000D01*
X22558800Y-18431200D02*
X22000000Y-18990000D01*
X53698200Y-46910200D02*
X53698200Y-44907800D01*
X63828100Y-35318100D02*
X66000000Y-37490000D01*
X53698200Y-44907800D02*
X52995300Y-44907800D01*
X52995300Y-44907800D02*
X51250000Y-43162500D01*
X33750000Y-20744300D02*
X33750000Y-21837500D01*
X31837500Y-31750000D02*
X31062600Y-31750000D01*
X25675500Y-27450500D02*
X25678700Y-27450500D01*
X56125500Y-35799500D02*
X56002300Y-35799500D01*
D57*
X56002300Y-35799500D02*
X54932100Y-35799500D01*
D56*
X53162500Y-23750000D02*
X54356300Y-22556200D01*
X40781900Y-48108600D02*
X41260000Y-48586700D01*
X46250000Y-42116300D02*
X45528400Y-41394700D01*
X58041700Y-31435000D02*
X58041700Y-35318100D01*
X20160000Y-38408700D02*
X20121500Y-38370200D01*
X77539300Y-39743500D02*
X78243500Y-39743500D01*
D57*
X50494200Y-53621300D02*
X49983700Y-53621300D01*
D56*
X26712500Y-36000000D02*
X25870700Y-36000000D01*
X28500000Y-29010000D02*
X27238200Y-29010000D01*
X54607900Y-22252900D02*
X56270000Y-20590800D01*
X34750000Y-41241500D02*
X34750000Y-38299500D01*
X32626400Y-7300000D02*
X31934800Y-7991600D01*
X33750000Y-21837500D02*
X33194500Y-22393000D01*
D57*
X49983700Y-53621300D02*
X49707100Y-53897900D01*
D56*
X33510000Y-13833700D02*
X38759300Y-13833700D01*
X45758600Y-16520000D02*
X46253900Y-17015300D01*
X61225000Y-44905400D02*
X61551700Y-44905400D01*
X53800200Y-47012200D02*
X53698200Y-46910200D01*
X33510000Y-14942500D02*
X31047500Y-14942500D01*
X31000600Y-49779300D02*
X31261900Y-50040600D01*
X40469700Y-41468000D02*
X40243200Y-41241500D01*
X53162500Y-35750000D02*
X50565700Y-35750000D01*
X25870700Y-36000000D02*
X25774400Y-36096300D01*
X33767500Y-14942500D02*
X33510000Y-14942500D01*
X41260000Y-48586700D02*
X41418800Y-48586700D01*
X41186800Y-44239900D02*
X41250000Y-44176700D01*
X55971000Y-28324700D02*
X55971000Y-28076400D01*
X66383300Y-37873300D02*
X66000000Y-37490000D01*
X56842900Y-36516900D02*
X56842900Y-37037000D01*
X40469700Y-41468000D02*
X40543000Y-41394700D01*
X23225000Y-25000000D02*
X25675500Y-27450500D01*
X41076500Y-42124500D02*
X40469700Y-41517700D01*
X45250000Y-21837500D02*
X45250000Y-22841100D01*
X56807200Y-29160900D02*
X56807200Y-30200500D01*
X33510000Y-14942500D02*
X33510000Y-13833700D01*
X31934800Y-10424800D02*
X33510000Y-12000000D01*
X28962500Y-38250000D02*
X31837500Y-38250000D01*
X34025000Y-15200000D02*
X35055700Y-16230700D01*
X40521700Y-22978500D02*
X40250000Y-22706800D01*
X34025000Y-15200000D02*
X33767500Y-14942500D01*
X56842900Y-37037000D02*
X57007900Y-37202000D01*
X45250000Y-22841100D02*
X45112600Y-22978500D01*
X45112600Y-22978500D02*
X40521700Y-22978500D01*
X40250000Y-22706800D02*
X40250000Y-21837500D01*
X40469700Y-41517700D02*
X40469700Y-41468000D01*
X28500000Y-29187400D02*
X28500000Y-29010000D01*
X56807200Y-29160900D02*
X55971000Y-28324700D01*
X41250000Y-44176700D02*
X41250000Y-43162500D01*
D57*
X31887000Y-38299500D02*
X31837500Y-38250000D01*
D56*
X33510000Y-13833700D02*
X33510000Y-12000000D01*
X45528400Y-40787300D02*
X45528400Y-41394700D01*
X61222600Y-44907800D02*
X53698200Y-44907800D01*
X40000000Y-16520000D02*
X40000000Y-15074400D01*
%TO.N,GND*%
D58*
X3888300Y-21090800D02*
X4250000Y-21452500D01*
X38134200Y-15200000D02*
X38561100Y-14773100D01*
X49000000Y-49980000D02*
X50025700Y-51005700D01*
X37000000Y-49980000D02*
X39885000Y-49980000D01*
X22000000Y-23010000D02*
X22000000Y-23525600D01*
X40750000Y-18688600D02*
X40750000Y-18230000D01*
X15000000Y-35010000D02*
X15696300Y-35010000D01*
X53038000Y-30625500D02*
X53162500Y-30750000D01*
X40206600Y-49658400D02*
X40206600Y-47758600D01*
X31962000Y-38874500D02*
X31837500Y-38750000D01*
X55452100Y-22759900D02*
X55452100Y-24250000D01*
X15480000Y-29000000D02*
X14908800Y-29571200D01*
X29940600Y-48940600D02*
X29940600Y-49002700D01*
X11970000Y-57540000D02*
X14510000Y-55000000D01*
X33854300Y-42076000D02*
X33722200Y-42076000D01*
X33722200Y-42076000D02*
X32554900Y-42076000D01*
X68750000Y-21250000D02*
X67531800Y-20031800D01*
X58017700Y-37470000D02*
X57561300Y-37470000D01*
X32554900Y-42076000D02*
X28250000Y-46380900D01*
X17355900Y-36669600D02*
X17355900Y-36779000D01*
X19500000Y-25875300D02*
X19500000Y-26137500D01*
X57926100Y-36922000D02*
X58017700Y-37013600D01*
X15696300Y-35010000D02*
X17355900Y-36669600D01*
X16818000Y-28802600D02*
X16818000Y-29000000D01*
X52460600Y-24250100D02*
X52460600Y-24250000D01*
X28250000Y-46380900D02*
X28250000Y-47250000D01*
X56411400Y-37721700D02*
X56345200Y-37655500D01*
X20500000Y-33980000D02*
X19951100Y-33431100D01*
X55452100Y-24250000D02*
X53162500Y-24250000D01*
X24250000Y-32048900D02*
X23326600Y-31125500D01*
X25500000Y-18450500D02*
X25500000Y-19500000D01*
X40750000Y-18688600D02*
X45750000Y-18688600D01*
X40670100Y-43242400D02*
X40750000Y-43162500D01*
X40206600Y-47758600D02*
X40670100Y-47295100D01*
X20525600Y-25000000D02*
X20375300Y-25000000D01*
X11111700Y-20591700D02*
X10000000Y-19480000D01*
X45520800Y-44328300D02*
X45750000Y-44099100D01*
X25500000Y-34275000D02*
X24889000Y-34886000D01*
X45750000Y-21837500D02*
X45750000Y-22576000D01*
X17378600Y-28523300D02*
X17097300Y-28523300D01*
X32641800Y-8260800D02*
X32638200Y-8257200D01*
X3180000Y-21090800D02*
X3888300Y-21090800D01*
X47747100Y-24573100D02*
X52137600Y-24573100D01*
X10000000Y-57540000D02*
X11970000Y-57540000D01*
X24250000Y-33025000D02*
X24250000Y-32048900D01*
X43753700Y-49658400D02*
X45178400Y-49658400D01*
X33387600Y-8260800D02*
X32641800Y-8260800D01*
X25500000Y-34275000D02*
X24250000Y-33025000D01*
X24480000Y-22000000D02*
X24480000Y-20520000D01*
X24889000Y-34886000D02*
X24889000Y-37980000D01*
X78500000Y-43000000D02*
X79128400Y-42371600D01*
X35500000Y-11675000D02*
X33387600Y-9562600D01*
X56609400Y-48470200D02*
X56609400Y-49509500D01*
X15480000Y-29000000D02*
X16818000Y-29000000D01*
X56529100Y-37721700D02*
X56411400Y-37721700D01*
X16818000Y-29000000D02*
X16818000Y-29197400D01*
X52460600Y-24250000D02*
X53162500Y-24250000D01*
X17355900Y-36779000D02*
X19337000Y-38760100D01*
X56609400Y-48470200D02*
X58661100Y-48470200D01*
X53236200Y-36176300D02*
X53162500Y-36250000D01*
X11820000Y-22367500D02*
X11820000Y-21729100D01*
X11820000Y-21729100D02*
X11820000Y-21090800D01*
X22000000Y-23525600D02*
X23300600Y-23525600D01*
X57763000Y-30041700D02*
X57440500Y-30041700D01*
X55452100Y-26609200D02*
X58323800Y-29480900D01*
X21750000Y-47250000D02*
X28250000Y-47250000D01*
X3180000Y-22367500D02*
X3180000Y-21090800D01*
X34250000Y-42471700D02*
X33854300Y-42076000D01*
X24480000Y-20520000D02*
X25500000Y-19500000D01*
X20375300Y-25000000D02*
X19500000Y-25875300D01*
X39885000Y-49980000D02*
X40206600Y-49658400D01*
X50025700Y-51005700D02*
X50025700Y-52992300D01*
X55452100Y-24250000D02*
X55452100Y-26609200D01*
X56529100Y-37807200D02*
X57305200Y-37807200D01*
X53719800Y-53719800D02*
X55000000Y-55000000D01*
X20500000Y-34275000D02*
X20500000Y-33980000D01*
X45750000Y-21837500D02*
X45750000Y-18688600D01*
X18630600Y-31010000D02*
X19000000Y-31010000D01*
X23300600Y-23525600D02*
X24775000Y-25000000D01*
X56529100Y-37807200D02*
X56529100Y-37721700D01*
X56345200Y-37655500D02*
X56149000Y-37851700D01*
X56609400Y-50830200D02*
X56609400Y-49509500D01*
X52992300Y-52992300D02*
X53719800Y-53719800D01*
X14908800Y-29571200D02*
X13817000Y-29571200D01*
X29940600Y-49002700D02*
X32522700Y-49002700D01*
X57012200Y-21199800D02*
X55452100Y-22759900D01*
X58323800Y-29480900D02*
X57763000Y-30041700D01*
X23000000Y-34275000D02*
X20500000Y-34275000D01*
X40670100Y-47155200D02*
X40670100Y-43242400D01*
X43753700Y-46095400D02*
X45520800Y-44328300D01*
X51384400Y-31250000D02*
X52008900Y-30625500D01*
X58017700Y-37013600D02*
X58017700Y-37470000D01*
X56345200Y-36689800D02*
X55831700Y-36176300D01*
X21508600Y-14459100D02*
X25500000Y-18450500D01*
X33043700Y-38874500D02*
X31962000Y-38874500D01*
X31837500Y-31250000D02*
X51384400Y-31250000D01*
X19951100Y-33431100D02*
X19951100Y-31010000D01*
X66000000Y-41712500D02*
X70000000Y-41712500D01*
X40750000Y-18230000D02*
X40000000Y-17480000D01*
X57561300Y-37470000D02*
X57443400Y-37587900D01*
X33387600Y-9562600D02*
X33387600Y-8260800D01*
X52137600Y-24573100D02*
X52460600Y-24250100D01*
X24480000Y-22000000D02*
X24480000Y-22346200D01*
X18000000Y-15000000D02*
X19934100Y-15000000D01*
X43753700Y-49658400D02*
X43753700Y-46095400D01*
X24480000Y-22346200D02*
X23300600Y-23525600D01*
X38134200Y-15614200D02*
X40000000Y-17480000D01*
X22000000Y-23525600D02*
X20525600Y-25000000D01*
X75250000Y-21250000D02*
X75230000Y-21250000D01*
X11111700Y-21090800D02*
X10750000Y-21452500D01*
X20475000Y-14365000D02*
X20475000Y-14459100D01*
X53719800Y-53719800D02*
X56609400Y-50830200D01*
X11820000Y-21090800D02*
X11111700Y-21090800D01*
X40206600Y-49658400D02*
X43753700Y-49658400D01*
X15000000Y-21750000D02*
X17000000Y-21750000D01*
X28250000Y-47250000D02*
X29940600Y-48940600D01*
X23326600Y-31125500D02*
X22500000Y-31125500D01*
X59739700Y-21199800D02*
X60907700Y-20031800D01*
X67531800Y-20031800D02*
X60907700Y-20031800D01*
X63661400Y-43113600D02*
X58017700Y-37470000D01*
X45750000Y-44099100D02*
X45750000Y-43162500D01*
X40670100Y-47295100D02*
X40670100Y-47155200D01*
X19500000Y-26401900D02*
X17378600Y-28523300D01*
X63661400Y-43113600D02*
X62775000Y-44000000D01*
X19500000Y-26137500D02*
X19500000Y-26401900D01*
X54409200Y-46270000D02*
X56609400Y-48470200D01*
X65062500Y-41712500D02*
X63661400Y-43113600D01*
X58661100Y-48470200D02*
X62775000Y-44356300D01*
X36975000Y-15200000D02*
X38134200Y-15200000D01*
X52008900Y-30625500D02*
X53038000Y-30625500D01*
X19000000Y-31010000D02*
X19951100Y-31010000D01*
X38134200Y-15200000D02*
X38134200Y-15614200D01*
X75230000Y-21250000D02*
X72480000Y-24000000D01*
X56345200Y-37655500D02*
X56345200Y-36689800D01*
X13817000Y-29571200D02*
X11820000Y-27574200D01*
X19750500Y-34275000D02*
X17355900Y-36669600D01*
X62775000Y-44356300D02*
X62775000Y-44000000D01*
X79128400Y-42371600D02*
X79157500Y-42371600D01*
X19951100Y-31010000D02*
X22500000Y-31010000D01*
X33043700Y-38874500D02*
X33722200Y-39553000D01*
X20500000Y-34275000D02*
X19750500Y-34275000D01*
X24889000Y-37980000D02*
X23000000Y-37980000D01*
X57443400Y-37587900D02*
X57443400Y-37669000D01*
X40750000Y-21837500D02*
X40750000Y-18688600D01*
X33722200Y-39553000D02*
X33722200Y-42076000D01*
X45750000Y-22576000D02*
X47747100Y-24573100D01*
X11820000Y-21729100D02*
X14979100Y-21729100D01*
X25500000Y-37980000D02*
X24889000Y-37980000D01*
X45178400Y-49658400D02*
X45500000Y-49980000D01*
X32522700Y-49002700D02*
X33500000Y-49980000D01*
X11820000Y-26547500D02*
X11820000Y-27574200D01*
X20475000Y-14459100D02*
X21508600Y-14459100D01*
X57012200Y-21199800D02*
X59739700Y-21199800D01*
X22500000Y-31010000D02*
X22500000Y-31125500D01*
X16818000Y-29197400D02*
X18630600Y-31010000D01*
X57305200Y-37807200D02*
X57443400Y-37669000D01*
X33500000Y-49980000D02*
X37000000Y-49980000D01*
X50025700Y-52992300D02*
X52992300Y-52992300D01*
X46493700Y-17944900D02*
X45887600Y-18551000D01*
X19934100Y-15000000D02*
X20475000Y-14459100D01*
X45750000Y-18688600D02*
X45887600Y-18551000D01*
X55831700Y-36176300D02*
X53236200Y-36176300D01*
X11111700Y-21090800D02*
X11111700Y-20591700D01*
X17097300Y-28523300D02*
X16818000Y-28802600D01*
X45500000Y-49980000D02*
X49000000Y-49980000D01*
X66000000Y-41712500D02*
X65062500Y-41712500D01*
X34250000Y-43162500D02*
X34250000Y-42471700D01*
X14979100Y-21729100D02*
X15000000Y-21750000D01*
%TO.N,PC13*%
X32837100Y-26459500D02*
X32546600Y-26750000D01*
X33677500Y-26905000D02*
X33232000Y-26459500D01*
X33232000Y-26459500D02*
X32837100Y-26459500D01*
X32546600Y-26750000D02*
X31837500Y-26750000D01*
X71520000Y-24000000D02*
X70972900Y-24547100D01*
%TO.N,COMP_M*%
X15279500Y-25230500D02*
X16010000Y-24500000D01*
X15279500Y-25230500D02*
X14520000Y-25990000D01*
X14520000Y-25990000D02*
X14520000Y-29000000D01*
%TO.N,LED_PWR*%
X66000000Y-43287500D02*
X66690500Y-42597000D01*
X66550800Y-39060800D02*
X66000000Y-38510000D01*
%TO.N,VDDA*%
X26296300Y-33521300D02*
X25500000Y-32725000D01*
X25276000Y-35906600D02*
X25276000Y-36796000D01*
X30788900Y-39424000D02*
X26990000Y-39424000D01*
X25500000Y-37020000D02*
X26990000Y-38510000D01*
X26201000Y-34981600D02*
X25276000Y-35906600D01*
X26296300Y-34981600D02*
X26201000Y-34981600D01*
X25276000Y-36796000D02*
X25500000Y-37020000D01*
X26990000Y-39424000D02*
X26990000Y-40000000D01*
X27269100Y-34981600D02*
X26296300Y-34981600D01*
X26296300Y-34981600D02*
X26296300Y-33521300D01*
X31114900Y-39750000D02*
X30788900Y-39424000D01*
X26990000Y-38510000D02*
X26990000Y-39424000D01*
X31837500Y-39750000D02*
X31114900Y-39750000D01*
X28287500Y-36000000D02*
X27269100Y-34981600D01*
%TO.N,VBUS*%
D56*
X9950000Y-21452500D02*
X9950000Y-20324800D01*
X26501700Y-23098300D02*
X27100000Y-22500000D01*
X26049900Y-23098300D02*
X26501700Y-23098300D01*
X15055200Y-30434800D02*
X15000000Y-30490000D01*
X5050000Y-21452500D02*
X5050000Y-22042700D01*
X13497300Y-30490000D02*
X15000000Y-30490000D01*
X15759300Y-30434800D02*
X15055200Y-30434800D01*
X5050000Y-22042700D02*
X13497300Y-30490000D01*
%TO.N,CC1*%
D58*
X6250000Y-20324900D02*
X6250000Y-21452500D01*
X18449700Y-29439700D02*
X19000000Y-29990000D01*
%TO.N,USB_DP_P*%
X7962300Y-22443900D02*
X7449500Y-22443900D01*
X17811100Y-23761000D02*
X16738200Y-22688100D01*
X7250000Y-22094200D02*
X7250000Y-21452500D01*
X7374500Y-22218700D02*
X7250000Y-22094200D01*
X7374500Y-22368900D02*
X7374500Y-22218700D01*
X8250000Y-21452500D02*
X8250000Y-22156200D01*
X16127800Y-22688100D02*
X15086800Y-23729100D01*
X18448500Y-23761000D02*
X18550000Y-23862500D01*
X8250000Y-22156200D02*
X7962300Y-22443900D01*
X15086800Y-23729100D02*
X9822900Y-23729100D01*
X17811100Y-23761000D02*
X18448500Y-23761000D01*
X9822900Y-23729100D02*
X8250000Y-22156200D01*
X16738200Y-22688100D02*
X16127800Y-22688100D01*
X7449500Y-22443900D02*
X7374500Y-22368900D01*
%TO.N,USB_DM_P*%
X7750000Y-21452500D02*
X7750000Y-20742500D01*
X7478400Y-20470900D02*
X7025500Y-20470900D01*
X6750000Y-20746400D02*
X6750000Y-21452500D01*
X7520300Y-20512800D02*
X7478400Y-20470900D01*
X7025500Y-20470900D02*
X6750000Y-20746400D01*
X7520300Y-20512800D02*
X7732200Y-20300900D01*
X7750000Y-20742500D02*
X7520300Y-20512800D01*
X20450000Y-23862500D02*
X20450000Y-22777100D01*
%TO.N,CC2*%
X9250000Y-21452500D02*
X9250000Y-20316400D01*
X22500000Y-29990000D02*
X22500000Y-29309500D01*
%TO.N,PA13*%
X53162500Y-25250000D02*
X52022500Y-25250000D01*
%TO.N,PA14*%
X51250000Y-21837500D02*
X51435500Y-21652000D01*
X51435500Y-21652000D02*
X51435500Y-20687800D01*
%TO.N,PB3*%
X39250000Y-21837500D02*
X39250000Y-20685500D01*
%TO.N,NRST*%
X38768400Y-39915700D02*
X34602700Y-35750000D01*
X31837500Y-35750000D02*
X30836000Y-35750000D01*
X78500000Y-49000000D02*
X77064100Y-47564100D01*
X30836000Y-35750000D02*
X30668500Y-35917500D01*
X20500000Y-33020000D02*
X21222600Y-33020000D01*
X77064100Y-47564100D02*
X77064100Y-46221400D01*
X34602700Y-35750000D02*
X31837500Y-35750000D01*
X43467000Y-39915700D02*
X38768400Y-39915700D01*
%TO.N,VBUS_F*%
D56*
X32179800Y-19820200D02*
X33500000Y-18500000D01*
X29900000Y-22500000D02*
X29900000Y-22100000D01*
X29900000Y-22100000D02*
X32179800Y-19820200D01*
%TO.N,BOOT*%
X17520000Y-10800000D02*
X15525000Y-12795000D01*
X15525000Y-12795000D02*
X15525000Y-13095000D01*
%TO.N,+5V*%
X19500000Y-22350000D02*
X19500000Y-23862500D01*
X12760200Y-18520000D02*
X12760200Y-18355500D01*
X15000000Y-19850000D02*
X13670000Y-18520000D01*
X13670000Y-18520000D02*
X12760200Y-18520000D01*
X15000000Y-19850000D02*
X17000000Y-19850000D01*
X9000000Y-41628800D02*
X9000000Y-42000000D01*
X10122900Y-40505900D02*
X9000000Y-41628800D01*
X17000000Y-19850000D02*
X19500000Y-22350000D01*
D57*
X15525000Y-14365000D02*
X14855800Y-15034200D01*
X14855800Y-15034200D02*
X14362900Y-15034200D01*
D56*
X29500000Y-18500000D02*
X28209600Y-17209600D01*
X12760200Y-18520000D02*
X10000000Y-18520000D01*
%TO.N,FB*%
D58*
X22000000Y-20010000D02*
X22000000Y-21990000D01*
X20475000Y-18485000D02*
X20475000Y-16905000D01*
X22000000Y-20010000D02*
X20475000Y-18485000D01*
%TO.N,COMP*%
X20513900Y-15596100D02*
X21888400Y-15596100D01*
X14990000Y-24500000D02*
X16325100Y-23164900D01*
X23520000Y-22000000D02*
X22976700Y-21456700D01*
X22976700Y-21456700D02*
X22976700Y-21455100D01*
X20475000Y-15635000D02*
X20513900Y-15596100D01*
%TO.N,PH*%
D56*
X20575300Y-12994700D02*
X20475000Y-13095000D01*
X25500000Y-15276700D02*
X25500000Y-15500000D01*
X77830600Y-55669400D02*
X78500000Y-55000000D01*
X25500000Y-15500000D02*
X27089900Y-15500000D01*
X24275000Y-12994700D02*
X24275000Y-14051700D01*
X24275000Y-14051700D02*
X25500000Y-15276700D01*
X24275000Y-12994700D02*
X20575300Y-12994700D01*
X20475000Y-12795000D02*
X20475000Y-13095000D01*
X18480000Y-10800000D02*
X20475000Y-12795000D01*
X24275000Y-12000000D02*
X24275000Y-12994700D01*
%TO.N,OSC_OUT*%
D58*
X34476700Y-46496700D02*
X37000000Y-49020000D01*
X32807500Y-46000000D02*
X32788100Y-45980600D01*
X31837500Y-35250000D02*
X36417300Y-35250000D01*
X33750000Y-46000000D02*
X34476700Y-46000000D01*
X33023300Y-46000000D02*
X32807500Y-46000000D01*
X34476700Y-46000000D02*
X34476700Y-46496700D01*
X33750000Y-46000000D02*
X33023300Y-46000000D01*
%TO.N,PDR_ON*%
X34250000Y-21837500D02*
X34250000Y-22508700D01*
X33963400Y-22795300D02*
X33963400Y-23439400D01*
X28500000Y-27990000D02*
X29526500Y-27990000D01*
X34250000Y-22508700D02*
X33963400Y-22795300D01*
%TO.N,VBUS_SENSE*%
X15000000Y-31510000D02*
X15000000Y-33990000D01*
%TO.N,OSC32_IN*%
X45500000Y-49020000D02*
X45571800Y-49091800D01*
X45571800Y-49091800D02*
X46226700Y-49091800D01*
X48976700Y-46000000D02*
X49164900Y-46188200D01*
X48250000Y-46000000D02*
X48976700Y-46000000D01*
X32720700Y-27250000D02*
X33022100Y-26948600D01*
X31837500Y-27250000D02*
X32720700Y-27250000D01*
%TO.N,LED_USER*%
X70729000Y-42558500D02*
X70729000Y-39239000D01*
X70729000Y-39239000D02*
X70000000Y-38510000D01*
X70000000Y-43287500D02*
X70729000Y-42558500D01*
%TO.N,PD6*%
X44750000Y-21837500D02*
X44750000Y-21048400D01*
X44750000Y-21048400D02*
X45104000Y-20694400D01*
%TO.N,PD7*%
X44596100Y-20652400D02*
X44250000Y-20998500D01*
X44596100Y-20122200D02*
X44596100Y-20652400D01*
X44250000Y-20998500D02*
X44250000Y-21837500D01*
%TO.N,PD8*%
X51732300Y-39250000D02*
X53162500Y-39250000D01*
X51654400Y-39327900D02*
X51732300Y-39250000D01*
%TO.N,PD9*%
X53162500Y-38750000D02*
X52004100Y-38750000D01*
%TO.N,PE0*%
X35250000Y-21837500D02*
X35250000Y-22937300D01*
X35250000Y-22937300D02*
X35091900Y-23095400D01*
%TO.N,PE1*%
X34750000Y-22682800D02*
X34440100Y-22992700D01*
X34750000Y-21837500D02*
X34750000Y-22682800D01*
%TO.N,PE10*%
X46750000Y-43895500D02*
X46750000Y-43162500D01*
X46334300Y-44311200D02*
X46750000Y-43895500D01*
%TO.N,PE11*%
X47250000Y-43162500D02*
X47250000Y-44310200D01*
%TO.N,PE12*%
X47750000Y-43162500D02*
X47750000Y-44567000D01*
X47750000Y-44567000D02*
X47338400Y-44978600D01*
%TO.N,PE13*%
X48250000Y-43162500D02*
X48250000Y-42008700D01*
%TO.N,PE14*%
X48750000Y-43162500D02*
X48750000Y-44221300D01*
X48750000Y-44221300D02*
X48651800Y-44319500D01*
%TO.N,PE15*%
X49250000Y-44292800D02*
X49303600Y-44346400D01*
X49250000Y-43162500D02*
X49250000Y-44292800D01*
%TO.N,PE2*%
X29876200Y-23750000D02*
X28960700Y-24665500D01*
X28960700Y-24665500D02*
X28960700Y-25159500D01*
X31837500Y-23750000D02*
X29876200Y-23750000D01*
%TO.N,PE3*%
X31837500Y-24250000D02*
X30050300Y-24250000D01*
X30050300Y-24250000D02*
X29707300Y-24593000D01*
%TO.N,PE4*%
X30324000Y-24750000D02*
X29829200Y-25244800D01*
X31837500Y-24750000D02*
X30324000Y-24750000D01*
%TO.N,PE5*%
X31837500Y-25250000D02*
X30531600Y-25250000D01*
X29677000Y-26104600D02*
X28813300Y-26104600D01*
X30531600Y-25250000D02*
X29677000Y-26104600D01*
X28512100Y-26405800D02*
X28512100Y-26405900D01*
X28512100Y-26405900D02*
X27362400Y-26405900D01*
X28813300Y-26104600D02*
X28512100Y-26405800D01*
%TO.N,PE6*%
X29803700Y-26581300D02*
X29010700Y-26581300D01*
X31837500Y-25750000D02*
X30635000Y-25750000D01*
X30635000Y-25750000D02*
X29803700Y-26581300D01*
%TO.N,PE7*%
X44250000Y-43162500D02*
X44250000Y-42003800D01*
%TO.N,PE8*%
X44750000Y-43162500D02*
X44750000Y-44278800D01*
X44750000Y-44278800D02*
X44774300Y-44303100D01*
%TO.N,PE9*%
X45250000Y-43162500D02*
X45333400Y-43079100D01*
X45333400Y-43079100D02*
X45333400Y-41989300D01*
%TO.N,PF0*%
X32694600Y-28250000D02*
X33013500Y-28568900D01*
X31837500Y-28250000D02*
X32694600Y-28250000D01*
%TO.N,PF1*%
X32813400Y-29045700D02*
X32517700Y-28750000D01*
X32517700Y-28750000D02*
X31837500Y-28750000D01*
X33532900Y-29045700D02*
X32813400Y-29045700D01*
%TO.N,PF10*%
X31837500Y-34250000D02*
X30686300Y-34250000D01*
%TO.N,PF11*%
X39750000Y-43162500D02*
X39750000Y-44306800D01*
X39750000Y-44306800D02*
X39953300Y-44510100D01*
%TO.N,PF12*%
X40250000Y-43162500D02*
X40250000Y-42426900D01*
X40250000Y-42426900D02*
X39616300Y-41793200D01*
%TO.N,PF13*%
X41750000Y-44746000D02*
X41751600Y-44747600D01*
X41750000Y-43162500D02*
X41750000Y-44746000D01*
%TO.N,PF14*%
X42250000Y-43162500D02*
X42250000Y-44314500D01*
%TO.N,PF15*%
X42750000Y-44754900D02*
X42750000Y-43162500D01*
%TO.N,PF2*%
X31837500Y-29250000D02*
X31937600Y-29350100D01*
X32906000Y-29350100D02*
X33078300Y-29522400D01*
X31937600Y-29350100D02*
X32906000Y-29350100D01*
%TO.N,PF3*%
X32565700Y-29750000D02*
X31837500Y-29750000D01*
X33619800Y-30065400D02*
X32881100Y-30065400D01*
X32881100Y-30065400D02*
X32565700Y-29750000D01*
%TO.N,PF4*%
D59*
X30600000Y-30200000D02*
X30637500Y-30250000D01*
X31800000Y-30200000D02*
X30600000Y-30200000D01*
X31837500Y-30250000D02*
X31800000Y-30200000D01*
%TO.N,PF5*%
D58*
X31837500Y-30750000D02*
X33183700Y-30750000D01*
%TO.N,PF6*%
X31837500Y-32250000D02*
X33455000Y-32250000D01*
%TO.N,PF7*%
X31837500Y-32750000D02*
X30697300Y-32750000D01*
X30697300Y-32750000D02*
X30509800Y-32562500D01*
%TO.N,PF8*%
X36868000Y-33250000D02*
X34268900Y-33250000D01*
X37111800Y-33493800D02*
X36868000Y-33250000D01*
X31837500Y-33250000D02*
X34268900Y-33250000D01*
%TO.N,PF9*%
X32723900Y-33750000D02*
X32979000Y-34005100D01*
X31837500Y-33750000D02*
X32723900Y-33750000D01*
%TO.N,PG0*%
X43250000Y-43162500D02*
X43250000Y-44309700D01*
%TO.N,PG1*%
X43750000Y-42255600D02*
X43750000Y-43162500D01*
X43515600Y-42021200D02*
X43750000Y-42255600D01*
%TO.N,PG10*%
X43250000Y-21837500D02*
X43250000Y-20808300D01*
X43250000Y-20808300D02*
X43378100Y-20680200D01*
%TO.N,PG11*%
X42750000Y-21837500D02*
X42750000Y-20949000D01*
X42750000Y-20949000D02*
X42901300Y-20797700D01*
X42901300Y-20797700D02*
X42901300Y-20156900D01*
%TO.N,PG12*%
X42250000Y-20774800D02*
X42423700Y-20601100D01*
X42250000Y-21837500D02*
X42250000Y-20774800D01*
%TO.N,PG13*%
X41750000Y-21062600D02*
X41750000Y-21837500D01*
X41947000Y-20865600D02*
X41750000Y-21062600D01*
X41901600Y-20177500D02*
X41947000Y-20222900D01*
X41947000Y-20222900D02*
X41947000Y-20865600D01*
%TO.N,PG14*%
X41250000Y-20888200D02*
X41470200Y-20668000D01*
X41250000Y-21837500D02*
X41250000Y-20888200D01*
%TO.N,PG15*%
X39750000Y-21837500D02*
X39750000Y-22811000D01*
X39750000Y-22811000D02*
X39575500Y-22985500D01*
%TO.N,PG2*%
X53162500Y-34250000D02*
X55406600Y-34250000D01*
%TO.N,PG3*%
X53162500Y-33750000D02*
X56729100Y-33750000D01*
X56729100Y-33750000D02*
X56838000Y-33858900D01*
%TO.N,PG4*%
X52480200Y-33250000D02*
X53162500Y-33250000D01*
X52015600Y-33714600D02*
X52480200Y-33250000D01*
%TO.N,PG5*%
X53162500Y-32750000D02*
X52009700Y-32750000D01*
%TO.N,PG6*%
X53880600Y-32250000D02*
X54303600Y-32673000D01*
X53162500Y-32250000D02*
X53880600Y-32250000D01*
%TO.N,PG7*%
X53267300Y-31854800D02*
X54323800Y-31854800D01*
X53162500Y-31750000D02*
X53267300Y-31854800D01*
%TO.N,PG8*%
X53162500Y-31250000D02*
X53287500Y-31375000D01*
X53287500Y-31375000D02*
X56180900Y-31375000D01*
%TO.N,PG9*%
X43854800Y-21732700D02*
X43854800Y-20714600D01*
X43854800Y-20714600D02*
X44053200Y-20516200D01*
X43750000Y-21837500D02*
X43854800Y-21732700D01*
%TO.N,BOOT0*%
X77973500Y-52765100D02*
X78500000Y-52238600D01*
X78500000Y-52238600D02*
X78500000Y-52000000D01*
X36750000Y-21837500D02*
X36750000Y-22977600D01*
X10000000Y-55000000D02*
X13490000Y-55000000D01*
%TO.N,VCAP*%
X50750000Y-43162500D02*
X50750000Y-44744100D01*
X59007300Y-19767000D02*
X59653900Y-19120400D01*
X53285400Y-24872900D02*
X54589300Y-24872900D01*
X77788100Y-46711900D02*
X77664000Y-46711900D01*
X78500000Y-46000000D02*
X77788100Y-46711900D01*
X53162500Y-24750000D02*
X53285400Y-24872900D01*
X50751600Y-45826100D02*
X55660800Y-50735300D01*
X50750000Y-44744100D02*
X50751600Y-44745700D01*
X50751600Y-44745700D02*
X50751600Y-45826100D01*
%TO.N,OSC_IN*%
X35523300Y-46000000D02*
X34354300Y-44831000D01*
X36250000Y-46000000D02*
X35523300Y-46000000D01*
X34251100Y-49020000D02*
X34372800Y-48898300D01*
X32278700Y-45696800D02*
X32278700Y-47798700D01*
X32278700Y-47798700D02*
X33500000Y-49020000D01*
X33144500Y-44831000D02*
X32278700Y-45696800D01*
X33500000Y-49020000D02*
X34251100Y-49020000D01*
X31837500Y-34750000D02*
X32992900Y-34750000D01*
X34354300Y-44831000D02*
X33144500Y-44831000D01*
%TO.N,5VIN*%
D56*
X8270000Y-46730000D02*
X9000000Y-46000000D01*
X3200000Y-46730000D02*
X8270000Y-46730000D01*
%TO.N,VBAT*%
D58*
X30585600Y-15595600D02*
X30331200Y-15595600D01*
X30811600Y-26250000D02*
X30697400Y-26364200D01*
X31000000Y-16010000D02*
X30585600Y-15595600D01*
X31837500Y-26250000D02*
X30811600Y-26250000D01*
%TO.N,VREF+*%
X27427100Y-40582900D02*
X28010000Y-40000000D01*
X22406900Y-37613100D02*
X22406900Y-38252100D01*
X32800500Y-40912300D02*
X33375200Y-40337600D01*
X33375200Y-39727700D02*
X33022000Y-39374500D01*
X23703100Y-36316900D02*
X23000000Y-37020000D01*
X33022000Y-39374500D02*
X31962000Y-39374500D01*
X23000000Y-37020000D02*
X22406900Y-37613100D01*
X28010000Y-40000000D02*
X28010000Y-40011900D01*
X33375200Y-40337600D02*
X33375200Y-39727700D01*
X24737700Y-40582900D02*
X27427100Y-40582900D01*
X23703100Y-33428100D02*
X23703100Y-36316900D01*
X22406900Y-38252100D02*
X24737700Y-40582900D01*
X32800500Y-41645400D02*
X32800500Y-40912300D01*
X31962000Y-39374500D02*
X31837500Y-39250000D01*
X28010000Y-40011900D02*
X29643500Y-41645400D01*
X29643500Y-41645400D02*
X32800500Y-41645400D01*
X23000000Y-32725000D02*
X23703100Y-33428100D01*
%TO.N,OSC32_OUT*%
X46476700Y-46496700D02*
X49000000Y-49020000D01*
X45750000Y-46000000D02*
X45023300Y-46000000D01*
X45750000Y-46000000D02*
X46476700Y-46000000D01*
X31933400Y-27654100D02*
X31837500Y-27750000D01*
X46476700Y-46000000D02*
X46476700Y-46496700D01*
X45023300Y-46000000D02*
X44844300Y-45821000D01*
X40607700Y-27654100D02*
X31933400Y-27654100D01*
%TO.N,PA0*%
X31837500Y-40250000D02*
X30965800Y-40250000D01*
X29013400Y-39922200D02*
X28803900Y-40131700D01*
X30965800Y-40250000D02*
X30638000Y-39922200D01*
X30638000Y-39922200D02*
X29013400Y-39922200D01*
%TO.N,PA1*%
X30715900Y-40437400D02*
X29420000Y-40437400D01*
X31028500Y-40750000D02*
X30715900Y-40437400D01*
X31837500Y-40750000D02*
X31028500Y-40750000D01*
%TO.N,PA10*%
X53040800Y-26628300D02*
X52020900Y-26628300D01*
X53162500Y-26750000D02*
X53040800Y-26628300D01*
%TO.N,PA15*%
X50958700Y-20895100D02*
X50958700Y-20252300D01*
X50958700Y-20252300D02*
X50933800Y-20227400D01*
X50750000Y-21103800D02*
X50958700Y-20895100D01*
X50750000Y-21837500D02*
X50750000Y-21103800D01*
%TO.N,PA2*%
X31837500Y-41250000D02*
X30126700Y-41250000D01*
X30126700Y-41250000D02*
X29838100Y-40961400D01*
%TO.N,PA3*%
X33750000Y-43162500D02*
X32142500Y-43162500D01*
%TO.N,PA4*%
X32684100Y-44142200D02*
X32577500Y-44035600D01*
X35250000Y-43162500D02*
X35250000Y-43827200D01*
X35250000Y-43827200D02*
X34935000Y-44142200D01*
X32577500Y-44035600D02*
X31784300Y-44035600D01*
X34935000Y-44142200D02*
X32684100Y-44142200D01*
%TO.N,PA5*%
X35750000Y-43878800D02*
X35116500Y-44512300D01*
X35116500Y-44512300D02*
X32380000Y-44512300D01*
X35750000Y-43162500D02*
X35750000Y-43878800D01*
%TO.N,PA6*%
X36250000Y-43162500D02*
X36250000Y-44094200D01*
X36250000Y-44094200D02*
X36459700Y-44303900D01*
%TO.N,PA7*%
X36750000Y-43162500D02*
X36750000Y-42038000D01*
X36750000Y-42038000D02*
X36727400Y-42015400D01*
%TO.N,PA8*%
X53081500Y-27669000D02*
X53162500Y-27750000D01*
X51186200Y-27669000D02*
X53081500Y-27669000D01*
%TO.N,PA9*%
X53038000Y-27125500D02*
X53162500Y-27250000D01*
X51580300Y-27125500D02*
X53038000Y-27125500D01*
%TO.N,PB0*%
X69714500Y-37204500D02*
X70000000Y-37490000D01*
X38250000Y-43162500D02*
X38251200Y-43163700D01*
X38251200Y-44756500D02*
X38249600Y-44758100D01*
X38251200Y-43163700D02*
X38251200Y-44756500D01*
X69277400Y-37204500D02*
X69714500Y-37204500D01*
%TO.N,PB1*%
X39583300Y-45229900D02*
X38750000Y-44396600D01*
X38750000Y-44396600D02*
X38750000Y-43162500D01*
%TO.N,PB10*%
D59*
X49700000Y-43200000D02*
X49700000Y-42200000D01*
X49750000Y-43162500D02*
X49700000Y-43200000D01*
X49300000Y-42000000D02*
X49200000Y-41900000D01*
X49400000Y-42000000D02*
X49300000Y-42000000D01*
X48900000Y-41800000D02*
X48950000Y-41776859D01*
X49600000Y-42100000D02*
X49500000Y-42100000D01*
X49500000Y-42100000D02*
X49400000Y-42000000D01*
X49200000Y-41900000D02*
X49000000Y-41900000D01*
X49000000Y-41900000D02*
X48900000Y-41800000D01*
X49700000Y-42200000D02*
X49600000Y-42100000D01*
%TO.N,PB11*%
X50250000Y-43162500D02*
X50200000Y-43200000D01*
D58*
X50250000Y-43162500D02*
X50250000Y-42017600D01*
D59*
X50200000Y-43200000D02*
X50200000Y-46200000D01*
X50200000Y-46200000D02*
X50250000Y-46162500D01*
%TO.N,PB12*%
D58*
X53162500Y-41250000D02*
X51913600Y-41250000D01*
X51913600Y-41250000D02*
X51789200Y-41125600D01*
%TO.N,PB13*%
X53162500Y-40750000D02*
X54685200Y-40750000D01*
%TO.N,PB14*%
X51860500Y-40250000D02*
X51753600Y-40356900D01*
X53162500Y-40250000D02*
X51860500Y-40250000D01*
%TO.N,PB15*%
X52051200Y-39625500D02*
X53038000Y-39625500D01*
X51796600Y-39880100D02*
X51133900Y-39880100D01*
X52051200Y-39625500D02*
X51796600Y-39880100D01*
X53038000Y-39625500D02*
X53162500Y-39750000D01*
%TO.N,PB2*%
X39250000Y-43162500D02*
X39250000Y-42480600D01*
X39250000Y-42480600D02*
X38784900Y-42015500D01*
X38784900Y-42015500D02*
X38359500Y-42015500D01*
%TO.N,PB4*%
X38335400Y-20677200D02*
X38750000Y-21091800D01*
X38750000Y-21091800D02*
X38750000Y-21837500D01*
%TO.N,PB5*%
X38250000Y-22972400D02*
X38255800Y-22978200D01*
X38250000Y-21837500D02*
X38250000Y-22972400D01*
%TO.N,PB6*%
X37750000Y-22832900D02*
X37604000Y-22978900D01*
X37750000Y-21837500D02*
X37750000Y-22832900D01*
%TO.N,PB7*%
X37396000Y-20684700D02*
X37250000Y-20830700D01*
X37250000Y-20830700D02*
X37250000Y-21837500D01*
%TO.N,PB8*%
X36250000Y-21120500D02*
X36672900Y-20697600D01*
X36250000Y-21837500D02*
X36250000Y-21120500D01*
%TO.N,PB9*%
X35750000Y-21837500D02*
X35750000Y-20813500D01*
X35750000Y-20813500D02*
X36021100Y-20542400D01*
%TO.N,PC0*%
X31837500Y-36250000D02*
X32979000Y-36250000D01*
%TO.N,PC1*%
X31837500Y-36750000D02*
X30825400Y-36750000D01*
X30825400Y-36750000D02*
X30644700Y-36569300D01*
%TO.N,PC10*%
X50250000Y-21837500D02*
X50250000Y-20929600D01*
X50250000Y-20929600D02*
X50482000Y-20697600D01*
%TO.N,PC11*%
X49750000Y-21837500D02*
X49750000Y-19892900D01*
X47863800Y-18006700D02*
X47745600Y-18006700D01*
X49750000Y-19892900D02*
X47863800Y-18006700D01*
%TO.N,PC12*%
X49250000Y-22998700D02*
X49250000Y-21837500D01*
%TO.N,PC2_C*%
X32670100Y-37250000D02*
X32990400Y-36929700D01*
X31837500Y-37250000D02*
X32670100Y-37250000D01*
%TO.N,PC3_C*%
X32955100Y-37750000D02*
X33038600Y-37666500D01*
X31837500Y-37750000D02*
X32955100Y-37750000D01*
%TO.N,PC4*%
X37250000Y-44178000D02*
X37122700Y-44305300D01*
X37250000Y-43162500D02*
X37250000Y-44178000D01*
%TO.N,PC5*%
X37750000Y-43162500D02*
X37750000Y-44280600D01*
X37750000Y-44280600D02*
X37774500Y-44305100D01*
%TO.N,PC6*%
X54000000Y-29750000D02*
X54307700Y-29623900D01*
X53162500Y-29750000D02*
X53550000Y-29750000D01*
D59*
X53550000Y-29750000D02*
X54000000Y-29750000D01*
X54000000Y-29750000D02*
X54307700Y-29623900D01*
%TO.N,PC7*%
D58*
X53287000Y-29125500D02*
X53162500Y-29250000D01*
X55188800Y-29125500D02*
X53287000Y-29125500D01*
%TO.N,PC8*%
X53288000Y-28624500D02*
X54749900Y-28624500D01*
X53162500Y-28750000D02*
X53288000Y-28624500D01*
%TO.N,PC9*%
X54272900Y-28250000D02*
X54607900Y-27915000D01*
X53162500Y-28250000D02*
X54272900Y-28250000D01*
%TO.N,PD0*%
X48750000Y-21837500D02*
X48750000Y-20973000D01*
X48750000Y-20973000D02*
X49038600Y-20684400D01*
%TO.N,PD1*%
X49118700Y-19935800D02*
X49033800Y-19935800D01*
X49033800Y-19935800D02*
X48250000Y-20719600D01*
X48250000Y-20719600D02*
X48250000Y-21837500D01*
%TO.N,PD10*%
D59*
X53222100Y-38309600D02*
X54200000Y-38309600D01*
D58*
X57560600Y-38309600D02*
X57788700Y-38081500D01*
X53222100Y-38309600D02*
X54200000Y-38309600D01*
D59*
X57560600Y-39800000D02*
X57560600Y-38309600D01*
D58*
X53162500Y-38250000D02*
X53222100Y-38309600D01*
D59*
X54200000Y-38309600D02*
X54200000Y-39800000D01*
X54200000Y-39800000D02*
X57560600Y-39800000D01*
%TO.N,PD11*%
D58*
X55044700Y-37750000D02*
X55448700Y-37346000D01*
X53162500Y-37750000D02*
X55044700Y-37750000D01*
%TO.N,PD12*%
X53162500Y-37250000D02*
X51567000Y-37250000D01*
X51567000Y-37250000D02*
X51212700Y-37604300D01*
%TO.N,PD13*%
X55526500Y-36750000D02*
X55582300Y-36694200D01*
X53162500Y-36750000D02*
X55526500Y-36750000D01*
%TO.N,PD14*%
X53162500Y-35250000D02*
X55544200Y-35250000D01*
%TO.N,PD15*%
X53162500Y-34750000D02*
X52008000Y-34750000D01*
%TO.N,PD2*%
X47750000Y-21837500D02*
X47750000Y-20230600D01*
%TO.N,PD3*%
X47250000Y-21837500D02*
X47250000Y-20671600D01*
%TO.N,PD4*%
X46750000Y-20244800D02*
X46750000Y-21837500D01*
%TO.N,PD5*%
X46250000Y-21837500D02*
X46250000Y-20685500D01*
%TO.N,USB_DP*%
X51417900Y-25750000D02*
X51363900Y-25696000D01*
X18550000Y-26137500D02*
X18550000Y-25054400D01*
X53162500Y-25750000D02*
X51417900Y-25750000D01*
%TO.N,USB_DM*%
X51840000Y-26180000D02*
X52000000Y-26130000D01*
X50894100Y-26155000D02*
X50894100Y-26180000D01*
X20450000Y-26137500D02*
X21170300Y-26137500D01*
X53067500Y-26155000D02*
X53162500Y-26250000D01*
X50894100Y-26180000D02*
X51840000Y-26180000D01*
X52000000Y-26130000D02*
X53067500Y-26155000D01*
%TO.N,3V3_SW*%
D56*
X29725000Y-12000000D02*
X32490000Y-12000000D01*
%TD*%
M02*
