%TF.GenerationSoftware,KiCad,Pcbnew,10.0.4*%
%TF.CreationDate,2026-09-05T17:46:33+08:00*%
%TF.ProjectId,stm32h743_core,73746d33-3268-4373-9433-5f636f72652e,rev?*%
%TF.SameCoordinates,Original*%
%TF.FileFunction,Copper,L4,Bot*%
%TF.FilePolarity,Positive*%
%FSLAX46Y46*%
G04 Gerber Fmt 4.6, Leading zero omitted, Abs format (unit mm)*
G04 Created by KiCad (PCBNEW 10.0.4) date 2026-09-05 17:46:33*
%MOMM*%
%LPD*%
G01*
G04 APERTURE LIST*
%TA.AperFunction,ComponentPad*%
%ADD10C,2.000000*%
%TD*%
%TA.AperFunction,ComponentPad*%
%ADD11O,1.000000X2.100000*%
%TD*%
%TA.AperFunction,ComponentPad*%
%ADD12O,1.000000X1.600000*%
%TD*%
%TA.AperFunction,ComponentPad*%
%ADD13R,1.700000X1.700000*%
%TD*%
%TA.AperFunction,ComponentPad*%
%ADD14C,1.700000*%
%TD*%
%TA.AperFunction,ComponentPad*%
%ADD15C,6.400000*%
%TD*%
%TA.AperFunction,ViaPad*%
%ADD16C,0.500000*%
%TD*%
%TA.AperFunction,ViaPad*%
%ADD17C,0.600000*%
%TD*%
%TA.AperFunction,Conductor*%
%ADD18C,0.300000*%
%TD*%
%TA.AperFunction,Conductor*%
%ADD19C,0.150000*%
%TD*%
%TA.AperFunction,Conductor*%
%ADD20C,0.200000*%
%TD*%
G04 APERTURE END LIST*
D10*
%TO.P,SW2,1*%
%TO.N,PC13*%
X68750000Y-16750000D03*
X75250000Y-16750000D03*
%TO.P,SW2,2*%
%TO.N,GND*%
X68750000Y-21250000D03*
X75250000Y-21250000D03*
%TD*%
D11*
%TO.P,J3,SH*%
%TO.N,GND*%
X3180000Y-22367500D03*
D12*
X3180000Y-26547500D03*
D11*
X11820000Y-22367500D03*
D12*
X11820000Y-26547500D03*
%TD*%
D13*
%TO.P,J4,1*%
%TO.N,+3V3*%
X3200000Y-6150000D03*
D14*
%TO.P,J4,2*%
%TO.N,PA13*%
X3200000Y-8690000D03*
%TO.P,J4,3*%
%TO.N,PA14*%
X3200000Y-11230000D03*
%TO.P,J4,4*%
%TO.N,PB3*%
X3200000Y-13770000D03*
%TO.P,J4,5*%
%TO.N,NRST*%
X3200000Y-16310000D03*
%TO.P,J4,6*%
%TO.N,GND*%
X3200000Y-18850000D03*
%TD*%
D15*
%TO.P,H4,1*%
%TO.N,GND*%
X55000000Y-55000000D03*
%TD*%
%TO.P,H1,1*%
%TO.N,GND*%
X6000000Y-33000000D03*
%TD*%
%TO.P,H2,1*%
%TO.N,GND*%
X79000000Y-33000000D03*
%TD*%
D13*
%TO.P,J2,1*%
%TO.N,PD6*%
X8210000Y-63070000D03*
D14*
%TO.P,J2,2*%
%TO.N,PD7*%
X8210000Y-60530000D03*
%TO.P,J2,3*%
%TO.N,PD8*%
X10750000Y-63070000D03*
%TO.P,J2,4*%
%TO.N,PD9*%
X10750000Y-60530000D03*
%TO.P,J2,5*%
%TO.N,PE0*%
X13290000Y-63070000D03*
%TO.P,J2,6*%
%TO.N,PE1*%
X13290000Y-60530000D03*
%TO.P,J2,7*%
%TO.N,PE10*%
X15830000Y-63070000D03*
%TO.P,J2,8*%
%TO.N,PE11*%
X15830000Y-60530000D03*
%TO.P,J2,9*%
%TO.N,PE12*%
X18370000Y-63070000D03*
%TO.P,J2,10*%
%TO.N,PE13*%
X18370000Y-60530000D03*
%TO.P,J2,11*%
%TO.N,PE14*%
X20910000Y-63070000D03*
%TO.P,J2,12*%
%TO.N,PE15*%
X20910000Y-60530000D03*
%TO.P,J2,13*%
%TO.N,PE2*%
X23450000Y-63070000D03*
%TO.P,J2,14*%
%TO.N,PE3*%
X23450000Y-60530000D03*
%TO.P,J2,15*%
%TO.N,PE4*%
X25990000Y-63070000D03*
%TO.P,J2,16*%
%TO.N,PE5*%
X25990000Y-60530000D03*
%TO.P,J2,17*%
%TO.N,PE6*%
X28530000Y-63070000D03*
%TO.P,J2,18*%
%TO.N,PE7*%
X28530000Y-60530000D03*
%TO.P,J2,19*%
%TO.N,PE8*%
X31070000Y-63070000D03*
%TO.P,J2,20*%
%TO.N,PE9*%
X31070000Y-60530000D03*
%TO.P,J2,21*%
%TO.N,PF0*%
X33610000Y-63070000D03*
%TO.P,J2,22*%
%TO.N,PF1*%
X33610000Y-60530000D03*
%TO.P,J2,23*%
%TO.N,PF10*%
X36150000Y-63070000D03*
%TO.P,J2,24*%
%TO.N,PF11*%
X36150000Y-60530000D03*
%TO.P,J2,25*%
%TO.N,PF12*%
X38690000Y-63070000D03*
%TO.P,J2,26*%
%TO.N,PF13*%
X38690000Y-60530000D03*
%TO.P,J2,27*%
%TO.N,PF14*%
X41230000Y-63070000D03*
%TO.P,J2,28*%
%TO.N,PF15*%
X41230000Y-60530000D03*
%TO.P,J2,29*%
%TO.N,PF2*%
X43770000Y-63070000D03*
%TO.P,J2,30*%
%TO.N,PF3*%
X43770000Y-60530000D03*
%TO.P,J2,31*%
%TO.N,PF4*%
X46310000Y-63070000D03*
%TO.P,J2,32*%
%TO.N,PF5*%
X46310000Y-60530000D03*
%TO.P,J2,33*%
%TO.N,PF6*%
X48850000Y-63070000D03*
%TO.P,J2,34*%
%TO.N,PF7*%
X48850000Y-60530000D03*
%TO.P,J2,35*%
%TO.N,PF8*%
X51390000Y-63070000D03*
%TO.P,J2,36*%
%TO.N,PF9*%
X51390000Y-60530000D03*
%TO.P,J2,37*%
%TO.N,PG0*%
X53930000Y-63070000D03*
%TO.P,J2,38*%
%TO.N,PG1*%
X53930000Y-60530000D03*
%TO.P,J2,39*%
%TO.N,PG10*%
X56470000Y-63070000D03*
%TO.P,J2,40*%
%TO.N,PG11*%
X56470000Y-60530000D03*
%TO.P,J2,41*%
%TO.N,PG12*%
X59010000Y-63070000D03*
%TO.P,J2,42*%
%TO.N,PG13*%
X59010000Y-60530000D03*
%TO.P,J2,43*%
%TO.N,PG14*%
X61550000Y-63070000D03*
%TO.P,J2,44*%
%TO.N,PG15*%
X61550000Y-60530000D03*
%TO.P,J2,45*%
%TO.N,PG2*%
X64090000Y-63070000D03*
%TO.P,J2,46*%
%TO.N,PG3*%
X64090000Y-60530000D03*
%TO.P,J2,47*%
%TO.N,PG4*%
X66630000Y-63070000D03*
%TO.P,J2,48*%
%TO.N,PG5*%
X66630000Y-60530000D03*
%TO.P,J2,49*%
%TO.N,PG6*%
X69170000Y-63070000D03*
%TO.P,J2,50*%
%TO.N,PG7*%
X69170000Y-60530000D03*
%TO.P,J2,51*%
%TO.N,PG8*%
X71710000Y-63070000D03*
%TO.P,J2,52*%
%TO.N,PG9*%
X71710000Y-60530000D03*
%TO.P,J2,53*%
%TO.N,+3V3*%
X74250000Y-63070000D03*
%TO.P,J2,54*%
X74250000Y-60530000D03*
%TO.P,J2,55*%
%TO.N,GND*%
X76790000Y-63070000D03*
%TO.P,J2,56*%
X76790000Y-60530000D03*
%TD*%
D13*
%TO.P,J5,1*%
%TO.N,+3V3*%
X10000000Y-52460000D03*
D14*
%TO.P,J5,2*%
%TO.N,BOOT0*%
X10000000Y-55000000D03*
%TO.P,J5,3*%
%TO.N,GND*%
X10000000Y-57540000D03*
%TD*%
D15*
%TO.P,H3,1*%
%TO.N,GND*%
X30000000Y-55000000D03*
%TD*%
D13*
%TO.P,J1,1*%
%TO.N,PA0*%
X8210000Y-4470000D03*
D14*
%TO.P,J1,2*%
%TO.N,PA1*%
X8210000Y-1930000D03*
%TO.P,J1,3*%
%TO.N,PA10*%
X10750000Y-4470000D03*
%TO.P,J1,4*%
%TO.N,PA15*%
X10750000Y-1930000D03*
%TO.P,J1,5*%
%TO.N,PA2*%
X13290000Y-4470000D03*
%TO.P,J1,6*%
%TO.N,PA3*%
X13290000Y-1930000D03*
%TO.P,J1,7*%
%TO.N,PA4*%
X15830000Y-4470000D03*
%TO.P,J1,8*%
%TO.N,PA5*%
X15830000Y-1930000D03*
%TO.P,J1,9*%
%TO.N,PA6*%
X18370000Y-4470000D03*
%TO.P,J1,10*%
%TO.N,PA7*%
X18370000Y-1930000D03*
%TO.P,J1,11*%
%TO.N,PA8*%
X20910000Y-4470000D03*
%TO.P,J1,12*%
%TO.N,PA9*%
X20910000Y-1930000D03*
%TO.P,J1,13*%
%TO.N,PB0*%
X23450000Y-4470000D03*
%TO.P,J1,14*%
%TO.N,PB1*%
X23450000Y-1930000D03*
%TO.P,J1,15*%
%TO.N,PB10*%
X25990000Y-4470000D03*
%TO.P,J1,16*%
%TO.N,PB11*%
X25990000Y-1930000D03*
%TO.P,J1,17*%
%TO.N,PB12*%
X28530000Y-4470000D03*
%TO.P,J1,18*%
%TO.N,PB13*%
X28530000Y-1930000D03*
%TO.P,J1,19*%
%TO.N,PB14*%
X31070000Y-4470000D03*
%TO.P,J1,20*%
%TO.N,PB15*%
X31070000Y-1930000D03*
%TO.P,J1,21*%
%TO.N,PB2*%
X33610000Y-4470000D03*
%TO.P,J1,22*%
%TO.N,PB4*%
X33610000Y-1930000D03*
%TO.P,J1,23*%
%TO.N,PB5*%
X36150000Y-4470000D03*
%TO.P,J1,24*%
%TO.N,PB6*%
X36150000Y-1930000D03*
%TO.P,J1,25*%
%TO.N,PB7*%
X38690000Y-4470000D03*
%TO.P,J1,26*%
%TO.N,PB8*%
X38690000Y-1930000D03*
%TO.P,J1,27*%
%TO.N,PB9*%
X41230000Y-4470000D03*
%TO.P,J1,28*%
%TO.N,PC0*%
X41230000Y-1930000D03*
%TO.P,J1,29*%
%TO.N,PC1*%
X43770000Y-4470000D03*
%TO.P,J1,30*%
%TO.N,PC10*%
X43770000Y-1930000D03*
%TO.P,J1,31*%
%TO.N,PC11*%
X46310000Y-4470000D03*
%TO.P,J1,32*%
%TO.N,PC12*%
X46310000Y-1930000D03*
%TO.P,J1,33*%
%TO.N,PC13*%
X48850000Y-4470000D03*
%TO.P,J1,34*%
%TO.N,PC2_C*%
X48850000Y-1930000D03*
%TO.P,J1,35*%
%TO.N,PC3_C*%
X51390000Y-4470000D03*
%TO.P,J1,36*%
%TO.N,PC4*%
X51390000Y-1930000D03*
%TO.P,J1,37*%
%TO.N,PC5*%
X53930000Y-4470000D03*
%TO.P,J1,38*%
%TO.N,PC6*%
X53930000Y-1930000D03*
%TO.P,J1,39*%
%TO.N,PC7*%
X56470000Y-4470000D03*
%TO.P,J1,40*%
%TO.N,PC8*%
X56470000Y-1930000D03*
%TO.P,J1,41*%
%TO.N,PC9*%
X59010000Y-4470000D03*
%TO.P,J1,42*%
%TO.N,PD0*%
X59010000Y-1930000D03*
%TO.P,J1,43*%
%TO.N,PD1*%
X61550000Y-4470000D03*
%TO.P,J1,44*%
%TO.N,PD10*%
X61550000Y-1930000D03*
%TO.P,J1,45*%
%TO.N,PD11*%
X64090000Y-4470000D03*
%TO.P,J1,46*%
%TO.N,PD12*%
X64090000Y-1930000D03*
%TO.P,J1,47*%
%TO.N,PD13*%
X66630000Y-4470000D03*
%TO.P,J1,48*%
%TO.N,PD14*%
X66630000Y-1930000D03*
%TO.P,J1,49*%
%TO.N,PD15*%
X69170000Y-4470000D03*
%TO.P,J1,50*%
%TO.N,PD2*%
X69170000Y-1930000D03*
%TO.P,J1,51*%
%TO.N,PD3*%
X71710000Y-4470000D03*
%TO.P,J1,52*%
%TO.N,PD4*%
X71710000Y-1930000D03*
%TO.P,J1,53*%
%TO.N,PD5*%
X74250000Y-4470000D03*
%TO.P,J1,54*%
%TO.N,+3V3*%
X74250000Y-1930000D03*
%TO.P,J1,55*%
%TO.N,GND*%
X76790000Y-4470000D03*
%TO.P,J1,56*%
X76790000Y-1930000D03*
%TD*%
D10*
%TO.P,SW1,1*%
%TO.N,NRST*%
X21750000Y-42750000D03*
X28250000Y-42750000D03*
%TO.P,SW1,2*%
%TO.N,GND*%
X21750000Y-47250000D03*
X28250000Y-47250000D03*
%TD*%
D13*
%TO.P,J6,1*%
%TO.N,5VIN*%
X3200000Y-46730000D03*
D14*
%TO.P,J6,2*%
%TO.N,GND*%
X3200000Y-49270000D03*
%TD*%
D16*
%TO.N,+3V3*%
X31261900Y-50040600D03*
X22558800Y-18431200D03*
X55971000Y-28076400D03*
X33194500Y-22469100D03*
X54607900Y-22556200D03*
X77539300Y-39743500D03*
X50494200Y-53621300D03*
X25678700Y-27450500D03*
X20121500Y-38370200D03*
X66723900Y-37873300D03*
X45112600Y-23012500D03*
X25774400Y-36096300D03*
X41418800Y-48586700D03*
X14925600Y-9137500D03*
X61551700Y-44905400D03*
%TO.N,GND*%
X56149000Y-37851700D03*
X79157500Y-42371600D03*
X45520800Y-44328300D03*
X52008900Y-30625500D03*
X57440500Y-30041700D03*
X45887600Y-18551000D03*
X33387600Y-8260800D03*
%TO.N,PC13*%
X33677500Y-26905000D03*
X51940100Y-24096400D03*
X70972900Y-24547100D03*
%TO.N,COMP_M*%
X15279500Y-25230500D03*
%TO.N,LED_PWR*%
X66690500Y-42597000D03*
X66550800Y-39060800D03*
%TO.N,VBUS*%
X15759300Y-30434800D03*
X26049900Y-23098300D03*
X9950000Y-20324800D03*
%TO.N,CC1*%
X6250000Y-20324900D03*
X18449700Y-29439700D03*
%TO.N,USB_DP_P*%
X17811100Y-23761000D03*
%TO.N,USB_DM_P*%
X20450000Y-22777100D03*
X7732200Y-20300900D03*
%TO.N,CC2*%
X9250000Y-20316400D03*
X22500000Y-29309500D03*
%TO.N,PA13*%
X52022500Y-25250000D03*
%TO.N,PA14*%
X51435500Y-20687800D03*
%TO.N,PB3*%
X39250000Y-20685500D03*
%TO.N,NRST*%
X30668500Y-35917500D03*
X43467000Y-39915700D03*
X21222600Y-33020000D03*
X77064100Y-46221400D03*
%TO.N,VBUS_F*%
X32179800Y-19820200D03*
%TO.N,+5V*%
X14362900Y-15034200D03*
X10122900Y-40505900D03*
X28209600Y-17209600D03*
X12760200Y-18355500D03*
X12760200Y-22411600D03*
%TO.N,COMP*%
X22976700Y-21455100D03*
X16325100Y-23164900D03*
X21888400Y-15596100D03*
%TO.N,PH*%
X27089900Y-15500000D03*
X77830600Y-55669400D03*
X52080400Y-49239500D03*
%TO.N,OSC_OUT*%
X32788100Y-45980600D03*
X36417300Y-35250000D03*
%TO.N,PDR_ON*%
X29526500Y-27990000D03*
X33963400Y-23439400D03*
%TO.N,OSC32_IN*%
X36938700Y-30094200D03*
X46226700Y-49091800D03*
X33022100Y-26948600D03*
X49164900Y-46188200D03*
%TO.N,PD6*%
X45104000Y-20694400D03*
X43741900Y-38358800D03*
%TO.N,PD7*%
X41815800Y-38307700D03*
X44596100Y-20122200D03*
%TO.N,PD8*%
X51654400Y-39327900D03*
%TO.N,PD9*%
X52004100Y-38750000D03*
%TO.N,PE0*%
X35091900Y-23095400D03*
X26349800Y-37175500D03*
%TO.N,PE1*%
X17294700Y-29000000D03*
X34440100Y-22992700D03*
%TO.N,PE10*%
X46334300Y-44311200D03*
X39822200Y-47468800D03*
%TO.N,PE11*%
X47250000Y-44310200D03*
%TO.N,PE12*%
X47338400Y-44978600D03*
%TO.N,PE13*%
X48250000Y-42008700D03*
%TO.N,PE14*%
X48651800Y-44319500D03*
%TO.N,PE15*%
X49303600Y-44346400D03*
X22013700Y-62220800D03*
%TO.N,PE2*%
X28960700Y-25159500D03*
%TO.N,PE3*%
X29707300Y-24593000D03*
%TO.N,PE4*%
X29829200Y-25244800D03*
%TO.N,PE5*%
X27362400Y-26405900D03*
%TO.N,PE6*%
X29010700Y-26581300D03*
%TO.N,PE7*%
X44250000Y-42003800D03*
%TO.N,PE8*%
X44774300Y-44303100D03*
X33797700Y-57760200D03*
%TO.N,PE9*%
X45333400Y-41989300D03*
X44265000Y-46606100D03*
%TO.N,PF0*%
X33013500Y-28568900D03*
%TO.N,PF1*%
X33532900Y-29045700D03*
%TO.N,PF10*%
X30686300Y-34250000D03*
%TO.N,PF11*%
X39953300Y-44510100D03*
%TO.N,PF12*%
X39616300Y-41793200D03*
%TO.N,PF13*%
X41751600Y-44747600D03*
%TO.N,PF14*%
X42250000Y-44314500D03*
%TO.N,PF15*%
X42750000Y-44754900D03*
%TO.N,PF2*%
X33078300Y-29522400D03*
%TO.N,PF3*%
X46576600Y-58730100D03*
X33619800Y-30065400D03*
D17*
%TO.N,PF4*%
X30637500Y-30250000D03*
D16*
%TO.N,PF5*%
X33183700Y-30750000D03*
%TO.N,PF6*%
X33455000Y-32250000D03*
%TO.N,PF7*%
X30509800Y-32562500D03*
%TO.N,PF8*%
X37111800Y-33493800D03*
X34268900Y-33250000D03*
%TO.N,PF9*%
X41816600Y-54456100D03*
X32979000Y-34005100D03*
%TO.N,PG0*%
X43250000Y-44309700D03*
%TO.N,PG1*%
X43515600Y-42021200D03*
%TO.N,PG10*%
X43378100Y-20680200D03*
%TO.N,PG11*%
X42901300Y-20156900D03*
%TO.N,PG12*%
X42423700Y-20601100D03*
%TO.N,PG13*%
X41901600Y-20177500D03*
%TO.N,PG14*%
X41470200Y-20668000D03*
%TO.N,PG15*%
X39575500Y-22985500D03*
X50177400Y-25568300D03*
%TO.N,PG2*%
X55406600Y-34250000D03*
%TO.N,PG3*%
X56838000Y-33858900D03*
%TO.N,PG4*%
X52015600Y-33714600D03*
%TO.N,PG5*%
X52009700Y-32750000D03*
%TO.N,PG6*%
X54303600Y-32673000D03*
%TO.N,PG7*%
X54323800Y-31854800D03*
%TO.N,PG8*%
X56180900Y-31375000D03*
%TO.N,PG9*%
X44053200Y-20516200D03*
%TO.N,BOOT0*%
X77973500Y-52765100D03*
X36750000Y-22977600D03*
%TO.N,VCAP*%
X54589300Y-24872900D03*
X59007300Y-19767000D03*
X50751600Y-44745700D03*
X77664000Y-46711900D03*
%TO.N,OSC_IN*%
X32992900Y-34750000D03*
X34372800Y-48898300D03*
%TO.N,VBAT*%
X30697400Y-26364200D03*
X30331200Y-15595600D03*
%TO.N,OSC32_OUT*%
X44844300Y-45821000D03*
X40607700Y-27654100D03*
%TO.N,PA0*%
X28803900Y-40131700D03*
%TO.N,PA1*%
X29420000Y-40437400D03*
%TO.N,PA10*%
X52020900Y-26628300D03*
X41621400Y-17094000D03*
%TO.N,PA15*%
X50933800Y-20227400D03*
%TO.N,PA2*%
X29838100Y-40961400D03*
%TO.N,PA3*%
X32142500Y-43162500D03*
%TO.N,PA4*%
X31784300Y-44035600D03*
%TO.N,PA5*%
X19481500Y-6152700D03*
X32380000Y-44512300D03*
%TO.N,PA6*%
X36459700Y-44303900D03*
%TO.N,PA7*%
X36727400Y-42015400D03*
%TO.N,PA8*%
X40773700Y-6334400D03*
X51186200Y-27669000D03*
%TO.N,PA9*%
X47245000Y-19259200D03*
X51580300Y-27125500D03*
%TO.N,PB0*%
X38249600Y-44758100D03*
X69277400Y-37204500D03*
%TO.N,PB1*%
X39583300Y-45229900D03*
D17*
%TO.N,PB10*%
X48950000Y-41776859D03*
D16*
%TO.N,PB11*%
X50250000Y-42017600D03*
D17*
X50250000Y-46162500D03*
D16*
%TO.N,PB12*%
X51789200Y-41125600D03*
%TO.N,PB13*%
X54685200Y-40750000D03*
X48737000Y-38358800D03*
%TO.N,PB14*%
X51753600Y-40356900D03*
%TO.N,PB15*%
X51133900Y-39880100D03*
%TO.N,PB2*%
X40051000Y-28130800D03*
X38359500Y-42015500D03*
%TO.N,PB4*%
X38335400Y-20677200D03*
%TO.N,PB5*%
X38255800Y-22978200D03*
%TO.N,PB6*%
X37604000Y-22978900D03*
%TO.N,PB7*%
X37396000Y-20684700D03*
%TO.N,PB8*%
X36672900Y-20697600D03*
%TO.N,PB9*%
X36021100Y-20542400D03*
%TO.N,PC0*%
X39375100Y-26918500D03*
X32979000Y-36250000D03*
%TO.N,PC1*%
X30644700Y-36569300D03*
%TO.N,PC10*%
X50482000Y-20697600D03*
%TO.N,PC11*%
X47745600Y-18006700D03*
%TO.N,PC12*%
X49250000Y-22998700D03*
%TO.N,PC2_C*%
X32990400Y-36929700D03*
X41339100Y-29286300D03*
%TO.N,PC3_C*%
X33038600Y-37666500D03*
%TO.N,PC4*%
X37122700Y-44305300D03*
X51822700Y-28481900D03*
X37210400Y-35867300D03*
%TO.N,PC5*%
X37774500Y-44305100D03*
%TO.N,PC6*%
X54307700Y-29623900D03*
%TO.N,PC7*%
X55188800Y-29125500D03*
%TO.N,PC8*%
X54749900Y-28624500D03*
%TO.N,PC9*%
X54607900Y-27915000D03*
X56104500Y-6268700D03*
%TO.N,PD0*%
X49038600Y-20684400D03*
%TO.N,PD1*%
X61550000Y-13179600D03*
X49118700Y-19935800D03*
%TO.N,PD10*%
X57788700Y-38081500D03*
%TO.N,PD11*%
X55448700Y-37346000D03*
%TO.N,PD12*%
X51212700Y-37604300D03*
X56186200Y-34338400D03*
%TO.N,PD13*%
X55582300Y-36694200D03*
%TO.N,PD14*%
X55544200Y-35250000D03*
%TO.N,PD15*%
X67121300Y-27350200D03*
X52008000Y-34750000D03*
%TO.N,PD2*%
X47750000Y-20230600D03*
%TO.N,PD3*%
X47250000Y-20671600D03*
%TO.N,PD4*%
X46750000Y-20244800D03*
%TO.N,PD5*%
X46250000Y-20685500D03*
%TO.N,USB_DP*%
X51363900Y-25696000D03*
X18550000Y-25054400D03*
%TO.N,USB_DM*%
X50894100Y-26155000D03*
X21170300Y-26137500D03*
%TD*%
%TO.N,+3V3*%
D18*
X25774400Y-27546200D02*
X25774400Y-36096300D01*
X25678700Y-27450500D02*
X25774400Y-27546200D01*
%TO.N,GND*%
D19*
X55358400Y-35733100D02*
X55274400Y-35733100D01*
X56149000Y-37851700D02*
X56149000Y-36523700D01*
X55274400Y-35733100D02*
X53401100Y-33859800D01*
X56149000Y-36523700D02*
X55358400Y-35733100D01*
X53401100Y-32017700D02*
X52008900Y-30625500D01*
X53401100Y-33859800D02*
X53401100Y-32017700D01*
%TO.N,+5V*%
D18*
X12760200Y-16636900D02*
X12760200Y-18355500D01*
X12760200Y-18355500D02*
X12760200Y-22411600D01*
X14362900Y-15034200D02*
X12760200Y-16636900D01*
%TO.N,OSC_OUT*%
D19*
X36115600Y-35551700D02*
X36417300Y-35250000D01*
X36115600Y-42653100D02*
X36115600Y-35551700D01*
X32788100Y-45980600D02*
X36115600Y-42653100D01*
%TO.N,PD6*%
X45104000Y-21823700D02*
X45104000Y-20694400D01*
X43741900Y-23185800D02*
X45104000Y-21823700D01*
X43741900Y-38358800D02*
X43741900Y-23185800D01*
%TO.N,PD7*%
X41815800Y-24535300D02*
X44596100Y-21755000D01*
X44596100Y-21755000D02*
X44596100Y-20122200D01*
X41815800Y-38307700D02*
X41815800Y-24535300D01*
%TO.N,PE0*%
X26651500Y-31539200D02*
X35091900Y-23098800D01*
X26651500Y-36873800D02*
X26651500Y-31539200D01*
X26349800Y-37175500D02*
X26651500Y-36873800D01*
X35091900Y-23098800D02*
X35091900Y-23095400D01*
%TO.N,PE6*%
X26252800Y-29339200D02*
X29010700Y-26581300D01*
X26252800Y-36545700D02*
X26252800Y-29339200D01*
X27366200Y-61906200D02*
X27366200Y-57212200D01*
X28530000Y-63070000D02*
X27366200Y-61906200D01*
X27366200Y-57212200D02*
X25869000Y-55715000D01*
X25869000Y-55715000D02*
X25869000Y-36929500D01*
X25869000Y-36929500D02*
X26252800Y-36545700D01*
%TO.N,PF11*%
X39629000Y-44510100D02*
X36150000Y-47989100D01*
X36150000Y-47989100D02*
X36150000Y-60530000D01*
X39953300Y-44510100D02*
X39629000Y-44510100D01*
%TO.N,PF12*%
X37576300Y-61956300D02*
X37576300Y-47911100D01*
X37576300Y-47911100D02*
X40430000Y-45057400D01*
X38690000Y-63070000D02*
X37576300Y-61956300D01*
X40430000Y-42606900D02*
X39616300Y-41793200D01*
X40430000Y-45057400D02*
X40430000Y-42606900D01*
%TO.N,PF13*%
X38690000Y-47809200D02*
X41751600Y-44747600D01*
X38690000Y-60530000D02*
X38690000Y-47809200D01*
%TO.N,PF14*%
X42606200Y-59578300D02*
X42606200Y-61693800D01*
X42759800Y-43804700D02*
X43425500Y-43804700D01*
X42606200Y-61693800D02*
X41230000Y-63070000D01*
X42250000Y-44314500D02*
X42759800Y-43804700D01*
X43771800Y-44151000D02*
X43771800Y-58412700D01*
X43771800Y-58412700D02*
X42606200Y-59578300D01*
X43425500Y-43804700D02*
X43771800Y-44151000D01*
%TO.N,PF15*%
X42750000Y-44754900D02*
X42750000Y-55713100D01*
X41230000Y-57233100D02*
X41230000Y-60530000D01*
X42750000Y-55713100D02*
X41230000Y-57233100D01*
%TO.N,PF4*%
D20*
X38399999Y-64399999D02*
X43999999Y-64399999D01*
X29999999Y-36999999D02*
X31199999Y-38199999D01*
X45599999Y-63399999D02*
X45799999Y-63199999D01*
X30599999Y-31399999D02*
X29799999Y-32199999D01*
X32199999Y-45599999D02*
X32199999Y-46399999D01*
X34999999Y-61199999D02*
X35599999Y-61799999D01*
X37199999Y-62199999D02*
X37199999Y-62399999D01*
X31199999Y-38199999D02*
X31199999Y-44599999D01*
X37399999Y-62599999D02*
X37399999Y-63599999D01*
X31199999Y-44599999D02*
X32199999Y-45599999D01*
X46199999Y-63199999D02*
X46399999Y-62999999D01*
X37399999Y-63599999D02*
X37999999Y-64199999D01*
X37999999Y-64199999D02*
X38199999Y-64199999D01*
X29799999Y-32799999D02*
X29999999Y-32999999D01*
X38199999Y-64199999D02*
X38399999Y-64399999D01*
X44199999Y-64199999D02*
X44599999Y-64199999D01*
X45399999Y-63399999D02*
X45599999Y-63399999D01*
X32199999Y-46399999D02*
X33799999Y-47999999D01*
X33799999Y-47999999D02*
X33799999Y-49399999D01*
X29999999Y-32999999D02*
X29999999Y-36999999D01*
X36799999Y-61799999D02*
X37199999Y-62199999D01*
X45799999Y-63199999D02*
X46199999Y-63199999D01*
X43999999Y-64399999D02*
X44199999Y-64199999D01*
X37199999Y-62399999D02*
X37399999Y-62599999D01*
X30637500Y-30250000D02*
X30599999Y-30199999D01*
X30599999Y-30199999D02*
X30599999Y-31399999D01*
X34999999Y-50599999D02*
X34999999Y-61199999D01*
X29799999Y-32199999D02*
X29799999Y-32799999D01*
X46399999Y-62999999D02*
X46310000Y-63070000D01*
X33799999Y-49399999D02*
X34999999Y-50599999D01*
X44599999Y-64199999D02*
X45399999Y-63399999D01*
X35599999Y-61799999D02*
X36799999Y-61799999D01*
%TO.N,PG10*%
D19*
X55306200Y-60267800D02*
X55306200Y-61906200D01*
X45698700Y-41527700D02*
X48015400Y-43844400D01*
X45698700Y-20523800D02*
X45698700Y-41527700D01*
X55306200Y-61906200D02*
X56470000Y-63070000D01*
X44771100Y-19596200D02*
X45698700Y-20523800D01*
X43378100Y-20446100D02*
X44228000Y-19596200D01*
X43378100Y-20680200D02*
X43378100Y-20446100D01*
X44228000Y-19596200D02*
X44771100Y-19596200D01*
X48015400Y-52977000D02*
X55306200Y-60267800D01*
X48015400Y-43844400D02*
X48015400Y-52977000D01*
%TO.N,PG15*%
X50177400Y-34251900D02*
X50177400Y-25568300D01*
X61550000Y-60530000D02*
X61550000Y-45624500D01*
X61550000Y-45624500D02*
X50177400Y-34251900D01*
%TO.N,PG2*%
X62820000Y-61800000D02*
X62820000Y-41663400D01*
X64090000Y-63070000D02*
X62820000Y-61800000D01*
X62820000Y-41663400D02*
X55406600Y-34250000D01*
%TO.N,PG3*%
X64090000Y-60530000D02*
X64090000Y-41110900D01*
X64090000Y-41110900D02*
X56838000Y-33858900D01*
%TO.N,PG8*%
X70440000Y-45634100D02*
X56180900Y-31375000D01*
X71710000Y-63070000D02*
X70440000Y-61800000D01*
X70440000Y-61800000D02*
X70440000Y-45634100D01*
%TO.N,VBAT*%
X30697400Y-15961800D02*
X30697400Y-26364200D01*
X30331200Y-15595600D02*
X30697400Y-15961800D01*
%TO.N,OSC32_OUT*%
X40607700Y-27654100D02*
X40607700Y-39787400D01*
X40607700Y-39787400D02*
X44121900Y-43301600D01*
X44121900Y-45098600D02*
X44844300Y-45821000D01*
X44121900Y-43301600D02*
X44121900Y-45098600D01*
%TO.N,PB10*%
D20*
X48199999Y-20899999D02*
X48399999Y-20699999D01*
X25999999Y-4499999D02*
X25990000Y-4470000D01*
X55199999Y-3899999D02*
X54599999Y-3299999D01*
X26999999Y-4099999D02*
X26799999Y-4099999D01*
X54399999Y-5899999D02*
X54999999Y-5299999D01*
X48399999Y-19499999D02*
X54399999Y-13499999D01*
X48999999Y-41699999D02*
X48199999Y-40899999D01*
X54999999Y-5099999D02*
X55199999Y-4899999D01*
X54999999Y-5299999D02*
X54999999Y-5099999D01*
X26599999Y-4299999D02*
X26199999Y-4299999D01*
X54399999Y-13499999D02*
X54399999Y-5899999D01*
X26799999Y-4099999D02*
X26599999Y-4299999D01*
X55199999Y-4899999D02*
X55199999Y-3899999D01*
X27799999Y-3299999D02*
X26999999Y-4099999D01*
X48950000Y-41776859D02*
X48999999Y-41699999D01*
X48399999Y-20699999D02*
X48399999Y-19499999D01*
X48199999Y-40899999D02*
X48199999Y-20899999D01*
X54599999Y-3299999D02*
X27799999Y-3299999D01*
X26199999Y-4299999D02*
X25999999Y-4499999D01*
%TO.N,PB11*%
X49999999Y-45899999D02*
X49999999Y-44099999D01*
X57999999Y-7299999D02*
X60199999Y-5099999D01*
X51999999Y-18499999D02*
X57999999Y-12499999D01*
X50250000Y-46162500D02*
X50199999Y-46099999D01*
X49799999Y-43899999D02*
X49799999Y-43699999D01*
X49599999Y-43499999D02*
X49599999Y-23699999D01*
X26599999Y-1699999D02*
X26199999Y-1699999D01*
X49799999Y-23499999D02*
X49799999Y-23299999D01*
X26999999Y-1499999D02*
X26799999Y-1499999D01*
X59599999Y-700000D02*
X27999999Y-700000D01*
X49799999Y-23299999D02*
X51999999Y-21099999D01*
X27799999Y-899999D02*
X27599999Y-899999D01*
X50199999Y-46099999D02*
X49999999Y-45899999D01*
X60199999Y-1299999D02*
X59599999Y-700000D01*
X49599999Y-23699999D02*
X49799999Y-23499999D01*
X26799999Y-1499999D02*
X26599999Y-1699999D01*
X49799999Y-43699999D02*
X49599999Y-43499999D01*
X49999999Y-44099999D02*
X49799999Y-43899999D01*
X60199999Y-5099999D02*
X60199999Y-1299999D01*
X27999999Y-700000D02*
X27799999Y-899999D01*
X26199999Y-1699999D02*
X25999999Y-1899999D01*
X51999999Y-21099999D02*
X51999999Y-18499999D01*
X57999999Y-12499999D02*
X57999999Y-7299999D01*
X27599999Y-899999D02*
X26999999Y-1499999D01*
X25999999Y-1899999D02*
X25990000Y-1930000D01*
%TO.N,PB2*%
D19*
X38359500Y-29822300D02*
X38359500Y-42015500D01*
X40051000Y-28130800D02*
X38359500Y-29822300D01*
%TO.N,PB9*%
X41230000Y-4470000D02*
X36021100Y-9678900D01*
X36021100Y-9678900D02*
X36021100Y-20542400D01*
%TO.N,PC1*%
X40115800Y-21713600D02*
X38884000Y-22945400D01*
X32448700Y-32579200D02*
X32448700Y-34832900D01*
X35113800Y-27018600D02*
X35113800Y-29914100D01*
X40115800Y-8124200D02*
X40115800Y-21713600D01*
X32448700Y-34832900D02*
X30712300Y-36569300D01*
X38884000Y-22945400D02*
X38884000Y-23248400D01*
X35113800Y-29914100D02*
X32448700Y-32579200D01*
X43770000Y-4470000D02*
X40115800Y-8124200D01*
X38884000Y-23248400D02*
X35113800Y-27018600D01*
X30712300Y-36569300D02*
X30644700Y-36569300D01*
%TO.N,PC11*%
X46310000Y-4470000D02*
X47745600Y-5905600D01*
X47745600Y-5905600D02*
X47745600Y-18006700D01*
%TO.N,PC3_C*%
X46764900Y-19065200D02*
X45243700Y-19065200D01*
X47047600Y-18782500D02*
X46764900Y-19065200D01*
X35660500Y-27744200D02*
X35660500Y-35044600D01*
X45243700Y-19065200D02*
X45171300Y-18992800D01*
X47644100Y-18782500D02*
X47047600Y-18782500D01*
X51390000Y-15036600D02*
X47644100Y-18782500D01*
X51390000Y-4470000D02*
X51390000Y-15036600D01*
X40605600Y-20324600D02*
X40605600Y-22799100D01*
X41937400Y-18992800D02*
X40605600Y-20324600D01*
X40605600Y-22799100D02*
X35660500Y-27744200D01*
X45171300Y-18992800D02*
X41937400Y-18992800D01*
X35660500Y-35044600D02*
X33038600Y-37666500D01*
%TO.N,PC5*%
X40915200Y-24277600D02*
X37774500Y-27418300D01*
X45046300Y-19294500D02*
X42100300Y-19294500D01*
X37774500Y-27418300D02*
X37774500Y-44305100D01*
X45487700Y-19735900D02*
X45046300Y-19294500D01*
X47442500Y-19735900D02*
X45487700Y-19735900D01*
X53930000Y-4470000D02*
X53930000Y-13248400D01*
X42100300Y-19294500D02*
X40915200Y-20479600D01*
X53930000Y-13248400D02*
X47442500Y-19735900D01*
X40915200Y-20479600D02*
X40915200Y-24277600D01*
%TO.N,PD0*%
X49047800Y-20684400D02*
X57633800Y-12098400D01*
X57633800Y-3306200D02*
X59010000Y-1930000D01*
X57633800Y-12098400D02*
X57633800Y-3306200D01*
X49038600Y-20684400D02*
X49047800Y-20684400D01*
%TD*%
M02*
