M48
; DRILL file KiCad 10.0.4 date 2026-09-05T17:46:54
; FORMAT={-:-/ absolute / metric / decimal}
; #@! TF.CreationDate,2026-09-05T17:46:54+08:00
; #@! TF.GenerationSoftware,Kicad,Pcbnew,10.0.4
; #@! TF.FileFunction,MixedPlating,1,4
FMAT,2
METRIC
; #@! TA.AperFunction,Plated,PTH,ViaDrill
T1C0.250
; #@! TA.AperFunction,Plated,PTH,ViaDrill
T2C0.300
; #@! TA.AperFunction,Plated,PTH,ComponentDrill
T3C0.600
; #@! TA.AperFunction,Plated,PTH,ComponentDrill
T4C1.000
; #@! TA.AperFunction,Plated,PTH,ComponentDrill
T5C1.100
; #@! TA.AperFunction,Plated,PTH,ComponentDrill
T6C3.200
; #@! TA.AperFunction,NonPlated,NPTH,ComponentDrill
T7C0.650
%
G90
G05
T1
X6.25Y-20.325
X7.732Y-20.301
X9.25Y-20.316
X9.95Y-20.325
X10.123Y-40.506
X12.76Y-18.355
X12.76Y-22.412
X14.363Y-15.034
X14.926Y-9.137
X15.279Y-25.23
X15.759Y-30.435
X16.325Y-23.165
X17.295Y-29.0
X17.811Y-23.761
X18.45Y-29.44
X18.55Y-25.054
X19.482Y-6.153
X20.121Y-38.37
X20.45Y-22.777
X21.17Y-26.137
X21.223Y-33.02
X21.888Y-15.596
X22.014Y-62.221
X22.5Y-29.309
X22.559Y-18.431
X22.977Y-21.455
X25.679Y-27.45
X25.774Y-36.096
X26.05Y-23.098
X26.35Y-37.175
X27.09Y-15.5
X27.362Y-26.406
X28.21Y-17.21
X28.804Y-40.132
X28.961Y-25.159
X29.011Y-26.581
X29.42Y-40.437
X29.526Y-27.99
X29.707Y-24.593
X29.829Y-25.245
X29.838Y-40.961
X30.331Y-15.596
X30.51Y-32.562
X30.645Y-36.569
X30.668Y-35.917
X30.686Y-34.25
X30.697Y-26.364
X31.262Y-50.041
X31.784Y-44.036
X32.142Y-43.163
X32.18Y-19.82
X32.38Y-44.512
X32.788Y-45.981
X32.979Y-34.005
X32.979Y-36.25
X32.99Y-36.93
X32.993Y-34.75
X33.014Y-28.569
X33.022Y-26.949
X33.039Y-37.666
X33.078Y-29.522
X33.184Y-30.75
X33.194Y-22.469
X33.388Y-8.261
X33.455Y-32.25
X33.533Y-29.046
X33.62Y-30.065
X33.678Y-26.905
X33.798Y-57.76
X33.963Y-23.439
X34.269Y-33.25
X34.373Y-48.898
X34.44Y-22.993
X35.092Y-23.095
X36.021Y-20.542
X36.417Y-35.25
X36.46Y-44.304
X36.673Y-20.698
X36.727Y-42.015
X36.75Y-22.978
X36.939Y-30.094
X37.112Y-33.494
X37.123Y-44.305
X37.21Y-35.867
X37.396Y-20.685
X37.604Y-22.979
X37.774Y-44.305
X38.25Y-44.758
X38.256Y-22.978
X38.335Y-20.677
X38.359Y-42.015
X39.25Y-20.685
X39.375Y-26.918
X39.575Y-22.985
X39.583Y-45.23
X39.616Y-41.793
X39.822Y-47.469
X39.953Y-44.51
X40.051Y-28.131
X40.608Y-27.654
X40.774Y-6.334
X41.339Y-29.286
X41.419Y-48.587
X41.47Y-20.668
X41.621Y-17.094
X41.752Y-44.748
X41.816Y-38.308
X41.817Y-54.456
X41.902Y-20.177
X42.25Y-44.314
X42.424Y-20.601
X42.75Y-44.755
X42.901Y-20.157
X43.25Y-44.31
X43.378Y-20.68
X43.467Y-39.916
X43.516Y-42.021
X43.742Y-38.359
X44.053Y-20.516
X44.25Y-42.004
X44.265Y-46.606
X44.596Y-20.122
X44.774Y-44.303
X44.844Y-45.821
X45.104Y-20.694
X45.113Y-23.012
X45.333Y-41.989
X45.521Y-44.328
X45.888Y-18.551
X46.227Y-49.092
X46.25Y-20.685
X46.334Y-44.311
X46.577Y-58.73
X46.75Y-20.245
X47.245Y-19.259
X47.25Y-20.672
X47.25Y-44.31
X47.338Y-44.979
X47.746Y-18.007
X47.75Y-20.231
X48.25Y-42.009
X48.652Y-44.319
X48.737Y-38.359
X49.039Y-20.684
X49.119Y-19.936
X49.165Y-46.188
X49.25Y-22.999
X49.304Y-44.346
X50.177Y-25.568
X50.25Y-42.018
X50.482Y-20.698
X50.494Y-53.621
X50.752Y-44.746
X50.894Y-26.155
X50.934Y-20.227
X51.134Y-39.88
X51.186Y-27.669
X51.213Y-37.604
X51.364Y-25.696
X51.435Y-20.688
X51.58Y-27.125
X51.654Y-39.328
X51.754Y-40.357
X51.789Y-41.126
X51.823Y-28.482
X51.94Y-24.096
X52.004Y-38.75
X52.008Y-34.75
X52.009Y-30.625
X52.01Y-32.75
X52.016Y-33.715
X52.021Y-26.628
X52.023Y-25.25
X52.08Y-49.239
X54.304Y-32.673
X54.308Y-29.624
X54.324Y-31.855
X54.589Y-24.873
X54.608Y-22.556
X54.608Y-27.915
X54.685Y-40.75
X54.75Y-28.624
X55.189Y-29.125
X55.407Y-34.25
X55.449Y-37.346
X55.544Y-35.25
X55.582Y-36.694
X55.971Y-28.076
X56.104Y-6.269
X56.149Y-37.852
X56.181Y-31.375
X56.186Y-34.338
X56.838Y-33.859
X57.441Y-30.042
X57.789Y-38.081
X59.007Y-19.767
X61.55Y-13.18
X61.552Y-44.905
X66.551Y-39.061
X66.691Y-42.597
X66.724Y-37.873
X67.121Y-27.35
X69.277Y-37.204
X70.973Y-24.547
X77.064Y-46.221
X77.539Y-39.743
X77.664Y-46.712
X77.831Y-55.669
X77.974Y-52.765
X79.157Y-42.372
T2
X30.637Y-30.25
X48.95Y-41.777
X50.25Y-46.163
T4
X3.2Y-6.15
X3.2Y-8.69
X3.2Y-11.23
X3.2Y-13.77
X3.2Y-16.31
X3.2Y-18.85
X3.2Y-46.73
X3.2Y-49.27
X8.21Y-1.93
X8.21Y-4.47
X8.21Y-60.53
X8.21Y-63.07
X10.0Y-52.46
X10.0Y-55.0
X10.0Y-57.54
X10.75Y-1.93
X10.75Y-4.47
X10.75Y-60.53
X10.75Y-63.07
X13.29Y-1.93
X13.29Y-4.47
X13.29Y-60.53
X13.29Y-63.07
X15.83Y-1.93
X15.83Y-4.47
X15.83Y-60.53
X15.83Y-63.07
X18.37Y-1.93
X18.37Y-4.47
X18.37Y-60.53
X18.37Y-63.07
X20.91Y-1.93
X20.91Y-4.47
X20.91Y-60.53
X20.91Y-63.07
X23.45Y-1.93
X23.45Y-4.47
X23.45Y-60.53
X23.45Y-63.07
X25.99Y-1.93
X25.99Y-4.47
X25.99Y-60.53
X25.99Y-63.07
X28.53Y-1.93
X28.53Y-4.47
X28.53Y-60.53
X28.53Y-63.07
X31.07Y-1.93
X31.07Y-4.47
X31.07Y-60.53
X31.07Y-63.07
X33.61Y-1.93
X33.61Y-4.47
X33.61Y-60.53
X33.61Y-63.07
X36.15Y-1.93
X36.15Y-4.47
X36.15Y-60.53
X36.15Y-63.07
X38.69Y-1.93
X38.69Y-4.47
X38.69Y-60.53
X38.69Y-63.07
X41.23Y-1.93
X41.23Y-4.47
X41.23Y-60.53
X41.23Y-63.07
X43.77Y-1.93
X43.77Y-4.47
X43.77Y-60.53
X43.77Y-63.07
X46.31Y-1.93
X46.31Y-4.47
X46.31Y-60.53
X46.31Y-63.07
X48.85Y-1.93
X48.85Y-4.47
X48.85Y-60.53
X48.85Y-63.07
X51.39Y-1.93
X51.39Y-4.47
X51.39Y-60.53
X51.39Y-63.07
X53.93Y-1.93
X53.93Y-4.47
X53.93Y-60.53
X53.93Y-63.07
X56.47Y-1.93
X56.47Y-4.47
X56.47Y-60.53
X56.47Y-63.07
X59.01Y-1.93
X59.01Y-4.47
X59.01Y-60.53
X59.01Y-63.07
X61.55Y-1.93
X61.55Y-4.47
X61.55Y-60.53
X61.55Y-63.07
X64.09Y-1.93
X64.09Y-4.47
X64.09Y-60.53
X64.09Y-63.07
X66.63Y-1.93
X66.63Y-4.47
X66.63Y-60.53
X66.63Y-63.07
X69.17Y-1.93
X69.17Y-4.47
X69.17Y-60.53
X69.17Y-63.07
X71.71Y-1.93
X71.71Y-4.47
X71.71Y-60.53
X71.71Y-63.07
X74.25Y-1.93
X74.25Y-4.47
X74.25Y-60.53
X74.25Y-63.07
X76.79Y-1.93
X76.79Y-4.47
X76.79Y-60.53
X76.79Y-63.07
T5
X21.75Y-42.75
X21.75Y-47.25
X28.25Y-42.75
X28.25Y-47.25
X68.75Y-16.75
X68.75Y-21.25
X75.25Y-16.75
X75.25Y-21.25
T6
X6.0Y-33.0
X30.0Y-55.0
X55.0Y-55.0
X79.0Y-33.0
T7
X4.61Y-22.897
X10.39Y-22.897
T3
X3.18Y-21.817G85X3.18Y-22.918
G05
X3.18Y-26.247G85X3.18Y-26.848
G05
X11.82Y-21.817G85X11.82Y-22.918
G05
X11.82Y-26.247G85X11.82Y-26.848
G05
M30
